G04 #@! TF.FileFunction,Legend,Bot*
%FSLAX46Y46*%
G04 Gerber Fmt 4.6, Leading zero omitted, Abs format (unit mm)*
G04 Created by KiCad (PCBNEW 4.0.7-e2-6376~58~ubuntu16.04.1) date Wed Mar 28 23:24:04 2018*
%MOMM*%
%LPD*%
G01*
G04 APERTURE LIST*
%ADD10C,0.100000*%
%ADD11C,0.120000*%
%ADD12C,0.150000*%
G04 APERTURE END LIST*
D10*
D11*
X126754000Y-108878000D02*
X127754000Y-108878000D01*
X127754000Y-110578000D02*
X126754000Y-110578000D01*
X130390000Y-103894000D02*
X130390000Y-104894000D01*
X128690000Y-104894000D02*
X128690000Y-103894000D01*
X119468000Y-101100000D02*
X119468000Y-102100000D01*
X117768000Y-102100000D02*
X117768000Y-101100000D01*
X107386000Y-86616000D02*
X108316000Y-86616000D01*
X110546000Y-86616000D02*
X109616000Y-86616000D01*
X110546000Y-86616000D02*
X110546000Y-88776000D01*
X107386000Y-86616000D02*
X107386000Y-88076000D01*
X107952000Y-95306000D02*
X107952000Y-94376000D01*
X107952000Y-92146000D02*
X107952000Y-93076000D01*
X107952000Y-92146000D02*
X110112000Y-92146000D01*
X107952000Y-95306000D02*
X109412000Y-95306000D01*
D12*
X108758000Y-104394000D02*
X109458000Y-104394000D01*
X108158000Y-104394000D02*
X107858000Y-104394000D01*
X108258000Y-104694000D02*
X108258000Y-104094000D01*
X108758000Y-104694000D02*
X108258000Y-104394000D01*
X108758000Y-104094000D02*
X108258000Y-104394000D01*
X108758000Y-104694000D02*
X108758000Y-104094000D01*
X109358000Y-105094000D02*
X109358000Y-103694000D01*
X107558000Y-105094000D02*
X109358000Y-105094000D01*
X107558000Y-103694000D02*
X107558000Y-105094000D01*
X109358000Y-103694000D02*
X107558000Y-103694000D01*
D11*
X121604000Y-112417000D02*
X120204000Y-112417000D01*
X120204000Y-112417000D02*
X120204000Y-109617000D01*
X121604000Y-112417000D02*
X121604000Y-109617000D01*
X118048000Y-112417000D02*
X116648000Y-112417000D01*
X116648000Y-112417000D02*
X116648000Y-109617000D01*
X118048000Y-112417000D02*
X118048000Y-109617000D01*
X119826000Y-112417000D02*
X118426000Y-112417000D01*
X118426000Y-112417000D02*
X118426000Y-109617000D01*
X119826000Y-112417000D02*
X119826000Y-109617000D01*
X111388000Y-87030000D02*
X111388000Y-88230000D01*
X113148000Y-88230000D02*
X113148000Y-87030000D01*
X109128000Y-91558000D02*
X110328000Y-91558000D01*
X110328000Y-89798000D02*
X109128000Y-89798000D01*
X122647000Y-112912000D02*
X121447000Y-112912000D01*
X121447000Y-114672000D02*
X122647000Y-114672000D01*
X114646000Y-102371000D02*
X113446000Y-102371000D01*
X113446000Y-104131000D02*
X114646000Y-104131000D01*
X115706000Y-101000000D02*
X115706000Y-102200000D01*
X117466000Y-102200000D02*
X117466000Y-101000000D01*
X130438000Y-71282000D02*
X130438000Y-72482000D01*
X132198000Y-72482000D02*
X132198000Y-71282000D01*
X127390000Y-71282000D02*
X127390000Y-72482000D01*
X129150000Y-72482000D02*
X129150000Y-71282000D01*
X119625000Y-116170000D02*
X119625000Y-114970000D01*
X117865000Y-114970000D02*
X117865000Y-116170000D01*
D12*
X122559581Y-100330000D02*
G75*
G03X122559581Y-100330000I-283981J0D01*
G01*
X138430000Y-101600000D02*
X138430000Y-101168200D01*
X120650000Y-101600000D02*
X120650000Y-101168200D01*
X120650000Y-74930000D02*
X120650000Y-75361800D01*
X124460000Y-74930000D02*
X124891800Y-74930000D01*
X138430000Y-74930000D02*
X138430000Y-75488800D01*
X134620000Y-74930000D02*
X134188200Y-74930000D01*
X124460000Y-74930000D02*
X120650000Y-74930000D01*
X138430000Y-74930000D02*
X134620000Y-74930000D01*
X138430000Y-101600000D02*
X120650000Y-101600000D01*
D11*
X143120000Y-83150000D02*
X143120000Y-81950000D01*
X141360000Y-81950000D02*
X141360000Y-83150000D01*
X115630000Y-113990000D02*
X115630000Y-106990000D01*
X110430000Y-113990000D02*
X110430000Y-106990000D01*
X110430000Y-106990000D02*
X111430000Y-106990000D01*
X130718000Y-117593000D02*
X131918000Y-117593000D01*
X131918000Y-115833000D02*
X130718000Y-115833000D01*
X127055000Y-134040000D02*
X127055000Y-134010000D01*
X127055000Y-127580000D02*
X127055000Y-127610000D01*
X120595000Y-127580000D02*
X120595000Y-127610000D01*
X120595000Y-134010000D02*
X120595000Y-134040000D01*
X127055000Y-132110000D02*
X127055000Y-129510000D01*
X120595000Y-134040000D02*
X127055000Y-134040000D01*
X120595000Y-132110000D02*
X120595000Y-129510000D01*
X120595000Y-127580000D02*
X127055000Y-127580000D01*
X127182000Y-124515000D02*
X127182000Y-124485000D01*
X127182000Y-118055000D02*
X127182000Y-118085000D01*
X120722000Y-118055000D02*
X120722000Y-118085000D01*
X120722000Y-124485000D02*
X120722000Y-124515000D01*
X127182000Y-122585000D02*
X127182000Y-119985000D01*
X120722000Y-124515000D02*
X127182000Y-124515000D01*
X120722000Y-122585000D02*
X120722000Y-119985000D01*
X120722000Y-118055000D02*
X127182000Y-118055000D01*
D12*
X124593333Y-110013714D02*
X124631428Y-110051810D01*
X124745714Y-110089905D01*
X124821904Y-110089905D01*
X124936190Y-110051810D01*
X125012381Y-109975619D01*
X125050476Y-109899429D01*
X125088571Y-109747048D01*
X125088571Y-109632762D01*
X125050476Y-109480381D01*
X125012381Y-109404190D01*
X124936190Y-109328000D01*
X124821904Y-109289905D01*
X124745714Y-109289905D01*
X124631428Y-109328000D01*
X124593333Y-109366095D01*
X124326666Y-109289905D02*
X123831428Y-109289905D01*
X124098095Y-109594667D01*
X123983809Y-109594667D01*
X123907619Y-109632762D01*
X123869523Y-109670857D01*
X123831428Y-109747048D01*
X123831428Y-109937524D01*
X123869523Y-110013714D01*
X123907619Y-110051810D01*
X123983809Y-110089905D01*
X124212381Y-110089905D01*
X124288571Y-110051810D01*
X124326666Y-110013714D01*
X132340286Y-104679714D02*
X132378381Y-104717810D01*
X132492667Y-104755905D01*
X132568857Y-104755905D01*
X132683143Y-104717810D01*
X132759334Y-104641619D01*
X132797429Y-104565429D01*
X132835524Y-104413048D01*
X132835524Y-104298762D01*
X132797429Y-104146381D01*
X132759334Y-104070190D01*
X132683143Y-103994000D01*
X132568857Y-103955905D01*
X132492667Y-103955905D01*
X132378381Y-103994000D01*
X132340286Y-104032095D01*
X131578381Y-104755905D02*
X132035524Y-104755905D01*
X131806953Y-104755905D02*
X131806953Y-103955905D01*
X131883143Y-104070190D01*
X131959334Y-104146381D01*
X132035524Y-104184476D01*
X131083143Y-103955905D02*
X131006952Y-103955905D01*
X130930762Y-103994000D01*
X130892667Y-104032095D01*
X130854571Y-104108286D01*
X130816476Y-104260667D01*
X130816476Y-104451143D01*
X130854571Y-104603524D01*
X130892667Y-104679714D01*
X130930762Y-104717810D01*
X131006952Y-104755905D01*
X131083143Y-104755905D01*
X131159333Y-104717810D01*
X131197429Y-104679714D01*
X131235524Y-104603524D01*
X131273619Y-104451143D01*
X131273619Y-104260667D01*
X131235524Y-104108286D01*
X131197429Y-104032095D01*
X131159333Y-103994000D01*
X131083143Y-103955905D01*
X118878286Y-99599714D02*
X118916381Y-99637810D01*
X119030667Y-99675905D01*
X119106857Y-99675905D01*
X119221143Y-99637810D01*
X119297334Y-99561619D01*
X119335429Y-99485429D01*
X119373524Y-99333048D01*
X119373524Y-99218762D01*
X119335429Y-99066381D01*
X119297334Y-98990190D01*
X119221143Y-98914000D01*
X119106857Y-98875905D01*
X119030667Y-98875905D01*
X118916381Y-98914000D01*
X118878286Y-98952095D01*
X118573524Y-98952095D02*
X118535429Y-98914000D01*
X118459238Y-98875905D01*
X118268762Y-98875905D01*
X118192572Y-98914000D01*
X118154476Y-98952095D01*
X118116381Y-99028286D01*
X118116381Y-99104476D01*
X118154476Y-99218762D01*
X118611619Y-99675905D01*
X118116381Y-99675905D01*
X117621143Y-98875905D02*
X117544952Y-98875905D01*
X117468762Y-98914000D01*
X117430667Y-98952095D01*
X117392571Y-99028286D01*
X117354476Y-99180667D01*
X117354476Y-99371143D01*
X117392571Y-99523524D01*
X117430667Y-99599714D01*
X117468762Y-99637810D01*
X117544952Y-99675905D01*
X117621143Y-99675905D01*
X117697333Y-99637810D01*
X117735429Y-99599714D01*
X117773524Y-99523524D01*
X117811619Y-99371143D01*
X117811619Y-99180667D01*
X117773524Y-99028286D01*
X117735429Y-98952095D01*
X117697333Y-98914000D01*
X117621143Y-98875905D01*
X110953476Y-86213905D02*
X110953476Y-85413905D01*
X110763000Y-85413905D01*
X110648714Y-85452000D01*
X110572523Y-85528190D01*
X110534428Y-85604381D01*
X110496333Y-85756762D01*
X110496333Y-85871048D01*
X110534428Y-86023429D01*
X110572523Y-86099619D01*
X110648714Y-86175810D01*
X110763000Y-86213905D01*
X110953476Y-86213905D01*
X109734428Y-86213905D02*
X110191571Y-86213905D01*
X109963000Y-86213905D02*
X109963000Y-85413905D01*
X110039190Y-85528190D01*
X110115381Y-85604381D01*
X110191571Y-85642476D01*
X111842476Y-94087905D02*
X111842476Y-93287905D01*
X111652000Y-93287905D01*
X111537714Y-93326000D01*
X111461523Y-93402190D01*
X111423428Y-93478381D01*
X111385333Y-93630762D01*
X111385333Y-93745048D01*
X111423428Y-93897429D01*
X111461523Y-93973619D01*
X111537714Y-94049810D01*
X111652000Y-94087905D01*
X111842476Y-94087905D01*
X111080571Y-93364095D02*
X111042476Y-93326000D01*
X110966285Y-93287905D01*
X110775809Y-93287905D01*
X110699619Y-93326000D01*
X110661523Y-93364095D01*
X110623428Y-93440286D01*
X110623428Y-93516476D01*
X110661523Y-93630762D01*
X111118666Y-94087905D01*
X110623428Y-94087905D01*
X102319905Y-103803524D02*
X101519905Y-103803524D01*
X101519905Y-103994000D01*
X101558000Y-104108286D01*
X101634190Y-104184477D01*
X101710381Y-104222572D01*
X101862762Y-104260667D01*
X101977048Y-104260667D01*
X102129429Y-104222572D01*
X102205619Y-104184477D01*
X102281810Y-104108286D01*
X102319905Y-103994000D01*
X102319905Y-103803524D01*
X101519905Y-104984477D02*
X101519905Y-104603524D01*
X101900857Y-104565429D01*
X101862762Y-104603524D01*
X101824667Y-104679715D01*
X101824667Y-104870191D01*
X101862762Y-104946381D01*
X101900857Y-104984477D01*
X101977048Y-105022572D01*
X102167524Y-105022572D01*
X102243714Y-104984477D01*
X102281810Y-104946381D01*
X102319905Y-104870191D01*
X102319905Y-104679715D01*
X102281810Y-104603524D01*
X102243714Y-104565429D01*
X121138905Y-107359524D02*
X120338905Y-107359524D01*
X120338905Y-107550000D01*
X120377000Y-107664286D01*
X120453190Y-107740477D01*
X120529381Y-107778572D01*
X120681762Y-107816667D01*
X120796048Y-107816667D01*
X120948429Y-107778572D01*
X121024619Y-107740477D01*
X121100810Y-107664286D01*
X121138905Y-107550000D01*
X121138905Y-107359524D01*
X120338905Y-108502381D02*
X120338905Y-108350000D01*
X120377000Y-108273810D01*
X120415095Y-108235715D01*
X120529381Y-108159524D01*
X120681762Y-108121429D01*
X120986524Y-108121429D01*
X121062714Y-108159524D01*
X121100810Y-108197619D01*
X121138905Y-108273810D01*
X121138905Y-108426191D01*
X121100810Y-108502381D01*
X121062714Y-108540477D01*
X120986524Y-108578572D01*
X120796048Y-108578572D01*
X120719857Y-108540477D01*
X120681762Y-108502381D01*
X120643667Y-108426191D01*
X120643667Y-108273810D01*
X120681762Y-108197619D01*
X120719857Y-108159524D01*
X120796048Y-108121429D01*
X117836905Y-107359524D02*
X117036905Y-107359524D01*
X117036905Y-107550000D01*
X117075000Y-107664286D01*
X117151190Y-107740477D01*
X117227381Y-107778572D01*
X117379762Y-107816667D01*
X117494048Y-107816667D01*
X117646429Y-107778572D01*
X117722619Y-107740477D01*
X117798810Y-107664286D01*
X117836905Y-107550000D01*
X117836905Y-107359524D01*
X117036905Y-108083334D02*
X117036905Y-108616667D01*
X117836905Y-108273810D01*
X119487905Y-107359524D02*
X118687905Y-107359524D01*
X118687905Y-107550000D01*
X118726000Y-107664286D01*
X118802190Y-107740477D01*
X118878381Y-107778572D01*
X119030762Y-107816667D01*
X119145048Y-107816667D01*
X119297429Y-107778572D01*
X119373619Y-107740477D01*
X119449810Y-107664286D01*
X119487905Y-107550000D01*
X119487905Y-107359524D01*
X119030762Y-108273810D02*
X118992667Y-108197619D01*
X118954571Y-108159524D01*
X118878381Y-108121429D01*
X118840286Y-108121429D01*
X118764095Y-108159524D01*
X118726000Y-108197619D01*
X118687905Y-108273810D01*
X118687905Y-108426191D01*
X118726000Y-108502381D01*
X118764095Y-108540477D01*
X118840286Y-108578572D01*
X118878381Y-108578572D01*
X118954571Y-108540477D01*
X118992667Y-108502381D01*
X119030762Y-108426191D01*
X119030762Y-108273810D01*
X119068857Y-108197619D01*
X119106952Y-108159524D01*
X119183143Y-108121429D01*
X119335524Y-108121429D01*
X119411714Y-108159524D01*
X119449810Y-108197619D01*
X119487905Y-108273810D01*
X119487905Y-108426191D01*
X119449810Y-108502381D01*
X119411714Y-108540477D01*
X119335524Y-108578572D01*
X119183143Y-108578572D01*
X119106952Y-108540477D01*
X119068857Y-108502381D01*
X119030762Y-108426191D01*
X105479857Y-99555334D02*
X105479857Y-99288667D01*
X105898905Y-99288667D02*
X105098905Y-99288667D01*
X105098905Y-99669620D01*
X105898905Y-100393429D02*
X105898905Y-99936286D01*
X105898905Y-100164857D02*
X105098905Y-100164857D01*
X105213190Y-100088667D01*
X105289381Y-100012476D01*
X105327476Y-99936286D01*
X114052333Y-87991905D02*
X114319000Y-87610952D01*
X114509476Y-87991905D02*
X114509476Y-87191905D01*
X114204714Y-87191905D01*
X114128523Y-87230000D01*
X114090428Y-87268095D01*
X114052333Y-87344286D01*
X114052333Y-87458571D01*
X114090428Y-87534762D01*
X114128523Y-87572857D01*
X114204714Y-87610952D01*
X114509476Y-87610952D01*
X113290428Y-87991905D02*
X113747571Y-87991905D01*
X113519000Y-87991905D02*
X113519000Y-87191905D01*
X113595190Y-87306190D01*
X113671381Y-87382381D01*
X113747571Y-87420476D01*
X112147333Y-91166905D02*
X112414000Y-90785952D01*
X112604476Y-91166905D02*
X112604476Y-90366905D01*
X112299714Y-90366905D01*
X112223523Y-90405000D01*
X112185428Y-90443095D01*
X112147333Y-90519286D01*
X112147333Y-90633571D01*
X112185428Y-90709762D01*
X112223523Y-90747857D01*
X112299714Y-90785952D01*
X112604476Y-90785952D01*
X111842571Y-90443095D02*
X111804476Y-90405000D01*
X111728285Y-90366905D01*
X111537809Y-90366905D01*
X111461619Y-90405000D01*
X111423523Y-90443095D01*
X111385428Y-90519286D01*
X111385428Y-90595476D01*
X111423523Y-90709762D01*
X111880666Y-91166905D01*
X111385428Y-91166905D01*
X122561286Y-115803905D02*
X122827953Y-115422952D01*
X123018429Y-115803905D02*
X123018429Y-115003905D01*
X122713667Y-115003905D01*
X122637476Y-115042000D01*
X122599381Y-115080095D01*
X122561286Y-115156286D01*
X122561286Y-115270571D01*
X122599381Y-115346762D01*
X122637476Y-115384857D01*
X122713667Y-115422952D01*
X123018429Y-115422952D01*
X121799381Y-115803905D02*
X122256524Y-115803905D01*
X122027953Y-115803905D02*
X122027953Y-115003905D01*
X122104143Y-115118190D01*
X122180334Y-115194381D01*
X122256524Y-115232476D01*
X121113667Y-115270571D02*
X121113667Y-115803905D01*
X121304143Y-114965810D02*
X121494619Y-115537238D01*
X120999381Y-115537238D01*
X114560286Y-105262905D02*
X114826953Y-104881952D01*
X115017429Y-105262905D02*
X115017429Y-104462905D01*
X114712667Y-104462905D01*
X114636476Y-104501000D01*
X114598381Y-104539095D01*
X114560286Y-104615286D01*
X114560286Y-104729571D01*
X114598381Y-104805762D01*
X114636476Y-104843857D01*
X114712667Y-104881952D01*
X115017429Y-104881952D01*
X113798381Y-105262905D02*
X114255524Y-105262905D01*
X114026953Y-105262905D02*
X114026953Y-104462905D01*
X114103143Y-104577190D01*
X114179334Y-104653381D01*
X114255524Y-104691476D01*
X113112667Y-104462905D02*
X113265048Y-104462905D01*
X113341238Y-104501000D01*
X113379333Y-104539095D01*
X113455524Y-104653381D01*
X113493619Y-104805762D01*
X113493619Y-105110524D01*
X113455524Y-105186714D01*
X113417429Y-105224810D01*
X113341238Y-105262905D01*
X113188857Y-105262905D01*
X113112667Y-105224810D01*
X113074571Y-105186714D01*
X113036476Y-105110524D01*
X113036476Y-104920048D01*
X113074571Y-104843857D01*
X113112667Y-104805762D01*
X113188857Y-104767667D01*
X113341238Y-104767667D01*
X113417429Y-104805762D01*
X113455524Y-104843857D01*
X113493619Y-104920048D01*
X116211286Y-99929905D02*
X116477953Y-99548952D01*
X116668429Y-99929905D02*
X116668429Y-99129905D01*
X116363667Y-99129905D01*
X116287476Y-99168000D01*
X116249381Y-99206095D01*
X116211286Y-99282286D01*
X116211286Y-99396571D01*
X116249381Y-99472762D01*
X116287476Y-99510857D01*
X116363667Y-99548952D01*
X116668429Y-99548952D01*
X115449381Y-99929905D02*
X115906524Y-99929905D01*
X115677953Y-99929905D02*
X115677953Y-99129905D01*
X115754143Y-99244190D01*
X115830334Y-99320381D01*
X115906524Y-99358476D01*
X115182714Y-99129905D02*
X114649381Y-99129905D01*
X114992238Y-99929905D01*
X133329905Y-71367714D02*
X132948952Y-71101047D01*
X133329905Y-70910571D02*
X132529905Y-70910571D01*
X132529905Y-71215333D01*
X132568000Y-71291524D01*
X132606095Y-71329619D01*
X132682286Y-71367714D01*
X132796571Y-71367714D01*
X132872762Y-71329619D01*
X132910857Y-71291524D01*
X132948952Y-71215333D01*
X132948952Y-70910571D01*
X133329905Y-72129619D02*
X133329905Y-71672476D01*
X133329905Y-71901047D02*
X132529905Y-71901047D01*
X132644190Y-71824857D01*
X132720381Y-71748666D01*
X132758476Y-71672476D01*
X132872762Y-72586762D02*
X132834667Y-72510571D01*
X132796571Y-72472476D01*
X132720381Y-72434381D01*
X132682286Y-72434381D01*
X132606095Y-72472476D01*
X132568000Y-72510571D01*
X132529905Y-72586762D01*
X132529905Y-72739143D01*
X132568000Y-72815333D01*
X132606095Y-72853429D01*
X132682286Y-72891524D01*
X132720381Y-72891524D01*
X132796571Y-72853429D01*
X132834667Y-72815333D01*
X132872762Y-72739143D01*
X132872762Y-72586762D01*
X132910857Y-72510571D01*
X132948952Y-72472476D01*
X133025143Y-72434381D01*
X133177524Y-72434381D01*
X133253714Y-72472476D01*
X133291810Y-72510571D01*
X133329905Y-72586762D01*
X133329905Y-72739143D01*
X133291810Y-72815333D01*
X133253714Y-72853429D01*
X133177524Y-72891524D01*
X133025143Y-72891524D01*
X132948952Y-72853429D01*
X132910857Y-72815333D01*
X132872762Y-72739143D01*
X130281905Y-71367714D02*
X129900952Y-71101047D01*
X130281905Y-70910571D02*
X129481905Y-70910571D01*
X129481905Y-71215333D01*
X129520000Y-71291524D01*
X129558095Y-71329619D01*
X129634286Y-71367714D01*
X129748571Y-71367714D01*
X129824762Y-71329619D01*
X129862857Y-71291524D01*
X129900952Y-71215333D01*
X129900952Y-70910571D01*
X130281905Y-72129619D02*
X130281905Y-71672476D01*
X130281905Y-71901047D02*
X129481905Y-71901047D01*
X129596190Y-71824857D01*
X129672381Y-71748666D01*
X129710476Y-71672476D01*
X130281905Y-72510571D02*
X130281905Y-72662952D01*
X130243810Y-72739143D01*
X130205714Y-72777238D01*
X130091429Y-72853429D01*
X129939048Y-72891524D01*
X129634286Y-72891524D01*
X129558095Y-72853429D01*
X129520000Y-72815333D01*
X129481905Y-72739143D01*
X129481905Y-72586762D01*
X129520000Y-72510571D01*
X129558095Y-72472476D01*
X129634286Y-72434381D01*
X129824762Y-72434381D01*
X129900952Y-72472476D01*
X129939048Y-72510571D01*
X129977143Y-72586762D01*
X129977143Y-72739143D01*
X129939048Y-72815333D01*
X129900952Y-72853429D01*
X129824762Y-72891524D01*
X117100286Y-115804905D02*
X117366953Y-115423952D01*
X117557429Y-115804905D02*
X117557429Y-115004905D01*
X117252667Y-115004905D01*
X117176476Y-115043000D01*
X117138381Y-115081095D01*
X117100286Y-115157286D01*
X117100286Y-115271571D01*
X117138381Y-115347762D01*
X117176476Y-115385857D01*
X117252667Y-115423952D01*
X117557429Y-115423952D01*
X116795524Y-115081095D02*
X116757429Y-115043000D01*
X116681238Y-115004905D01*
X116490762Y-115004905D01*
X116414572Y-115043000D01*
X116376476Y-115081095D01*
X116338381Y-115157286D01*
X116338381Y-115233476D01*
X116376476Y-115347762D01*
X116833619Y-115804905D01*
X116338381Y-115804905D01*
X115576476Y-115804905D02*
X116033619Y-115804905D01*
X115805048Y-115804905D02*
X115805048Y-115004905D01*
X115881238Y-115119190D01*
X115957429Y-115195381D01*
X116033619Y-115233476D01*
X137642524Y-102050905D02*
X137642524Y-102698524D01*
X137604429Y-102774714D01*
X137566333Y-102812810D01*
X137490143Y-102850905D01*
X137337762Y-102850905D01*
X137261571Y-102812810D01*
X137223476Y-102774714D01*
X137185381Y-102698524D01*
X137185381Y-102050905D01*
X136461572Y-102317571D02*
X136461572Y-102850905D01*
X136652048Y-102012810D02*
X136842524Y-102584238D01*
X136347286Y-102584238D01*
X142728905Y-85210714D02*
X142347952Y-84944047D01*
X142728905Y-84753571D02*
X141928905Y-84753571D01*
X141928905Y-85058333D01*
X141967000Y-85134524D01*
X142005095Y-85172619D01*
X142081286Y-85210714D01*
X142195571Y-85210714D01*
X142271762Y-85172619D01*
X142309857Y-85134524D01*
X142347952Y-85058333D01*
X142347952Y-84753571D01*
X142005095Y-85515476D02*
X141967000Y-85553571D01*
X141928905Y-85629762D01*
X141928905Y-85820238D01*
X141967000Y-85896428D01*
X142005095Y-85934524D01*
X142081286Y-85972619D01*
X142157476Y-85972619D01*
X142271762Y-85934524D01*
X142728905Y-85477381D01*
X142728905Y-85972619D01*
X141928905Y-86696429D02*
X141928905Y-86315476D01*
X142309857Y-86277381D01*
X142271762Y-86315476D01*
X142233667Y-86391667D01*
X142233667Y-86582143D01*
X142271762Y-86658333D01*
X142309857Y-86696429D01*
X142386048Y-86734524D01*
X142576524Y-86734524D01*
X142652714Y-86696429D01*
X142690810Y-86658333D01*
X142728905Y-86582143D01*
X142728905Y-86391667D01*
X142690810Y-86315476D01*
X142652714Y-86277381D01*
X113671238Y-115169905D02*
X114052191Y-115169905D01*
X114052191Y-114369905D01*
X113404572Y-114750857D02*
X113137905Y-114750857D01*
X113023619Y-115169905D02*
X113404572Y-115169905D01*
X113404572Y-114369905D01*
X113023619Y-114369905D01*
X112680762Y-115169905D02*
X112680762Y-114369905D01*
X112490286Y-114369905D01*
X112376000Y-114408000D01*
X112299809Y-114484190D01*
X112261714Y-114560381D01*
X112223619Y-114712762D01*
X112223619Y-114827048D01*
X112261714Y-114979429D01*
X112299809Y-115055619D01*
X112376000Y-115131810D01*
X112490286Y-115169905D01*
X112680762Y-115169905D01*
X111461714Y-115169905D02*
X111918857Y-115169905D01*
X111690286Y-115169905D02*
X111690286Y-114369905D01*
X111766476Y-114484190D01*
X111842667Y-114560381D01*
X111918857Y-114598476D01*
X131960857Y-115515381D02*
X132294191Y-115039190D01*
X132532286Y-115515381D02*
X132532286Y-114515381D01*
X132151333Y-114515381D01*
X132056095Y-114563000D01*
X132008476Y-114610619D01*
X131960857Y-114705857D01*
X131960857Y-114848714D01*
X132008476Y-114943952D01*
X132056095Y-114991571D01*
X132151333Y-115039190D01*
X132532286Y-115039190D01*
X131579905Y-114610619D02*
X131532286Y-114563000D01*
X131437048Y-114515381D01*
X131198952Y-114515381D01*
X131103714Y-114563000D01*
X131056095Y-114610619D01*
X131008476Y-114705857D01*
X131008476Y-114801095D01*
X131056095Y-114943952D01*
X131627524Y-115515381D01*
X131008476Y-115515381D01*
X130151333Y-114515381D02*
X130341810Y-114515381D01*
X130437048Y-114563000D01*
X130484667Y-114610619D01*
X130579905Y-114753476D01*
X130627524Y-114943952D01*
X130627524Y-115324905D01*
X130579905Y-115420143D01*
X130532286Y-115467762D01*
X130437048Y-115515381D01*
X130246571Y-115515381D01*
X130151333Y-115467762D01*
X130103714Y-115420143D01*
X130056095Y-115324905D01*
X130056095Y-115086810D01*
X130103714Y-114991571D01*
X130151333Y-114943952D01*
X130246571Y-114896333D01*
X130437048Y-114896333D01*
X130532286Y-114943952D01*
X130579905Y-114991571D01*
X130627524Y-115086810D01*
X125158333Y-135264762D02*
X125015476Y-135312381D01*
X124777380Y-135312381D01*
X124682142Y-135264762D01*
X124634523Y-135217143D01*
X124586904Y-135121905D01*
X124586904Y-135026667D01*
X124634523Y-134931429D01*
X124682142Y-134883810D01*
X124777380Y-134836190D01*
X124967857Y-134788571D01*
X125063095Y-134740952D01*
X125110714Y-134693333D01*
X125158333Y-134598095D01*
X125158333Y-134502857D01*
X125110714Y-134407619D01*
X125063095Y-134360000D01*
X124967857Y-134312381D01*
X124729761Y-134312381D01*
X124586904Y-134360000D01*
X124253571Y-134312381D02*
X124015476Y-135312381D01*
X123824999Y-134598095D01*
X123634523Y-135312381D01*
X123396428Y-134312381D01*
X123110714Y-134312381D02*
X122491666Y-134312381D01*
X122825000Y-134693333D01*
X122682142Y-134693333D01*
X122586904Y-134740952D01*
X122539285Y-134788571D01*
X122491666Y-134883810D01*
X122491666Y-135121905D01*
X122539285Y-135217143D01*
X122586904Y-135264762D01*
X122682142Y-135312381D01*
X122967857Y-135312381D01*
X123063095Y-135264762D01*
X123110714Y-135217143D01*
X125285333Y-125739762D02*
X125142476Y-125787381D01*
X124904380Y-125787381D01*
X124809142Y-125739762D01*
X124761523Y-125692143D01*
X124713904Y-125596905D01*
X124713904Y-125501667D01*
X124761523Y-125406429D01*
X124809142Y-125358810D01*
X124904380Y-125311190D01*
X125094857Y-125263571D01*
X125190095Y-125215952D01*
X125237714Y-125168333D01*
X125285333Y-125073095D01*
X125285333Y-124977857D01*
X125237714Y-124882619D01*
X125190095Y-124835000D01*
X125094857Y-124787381D01*
X124856761Y-124787381D01*
X124713904Y-124835000D01*
X124380571Y-124787381D02*
X124142476Y-125787381D01*
X123951999Y-125073095D01*
X123761523Y-125787381D01*
X123523428Y-124787381D01*
X122713904Y-125120714D02*
X122713904Y-125787381D01*
X122952000Y-124739762D02*
X123190095Y-125454048D01*
X122571047Y-125454048D01*
M02*
