G04 #@! TF.FileFunction,Legend,Top*
%FSLAX46Y46*%
G04 Gerber Fmt 4.6, Leading zero omitted, Abs format (unit mm)*
G04 Created by KiCad (PCBNEW 4.0.7-e2-6376~58~ubuntu16.04.1) date Wed Mar 28 23:24:04 2018*
%MOMM*%
%LPD*%
G01*
G04 APERTURE LIST*
%ADD10C,0.100000*%
%ADD11C,0.300000*%
%ADD12C,0.150000*%
%ADD13C,0.120000*%
G04 APERTURE END LIST*
D10*
D11*
X115712857Y-83750571D02*
X116570000Y-83750571D01*
X116141429Y-85250571D02*
X116141429Y-83750571D01*
X116855714Y-83750571D02*
X117712857Y-83750571D01*
X117284286Y-85250571D02*
X117284286Y-83750571D01*
X118212857Y-85250571D02*
X118212857Y-83750571D01*
X119070000Y-85250571D01*
X119070000Y-83750571D01*
X120712857Y-83750571D02*
X121570000Y-83750571D01*
X121141429Y-85250571D02*
X121141429Y-83750571D01*
X122070000Y-85250571D02*
X122070000Y-84250571D01*
X122070000Y-84536286D02*
X122141428Y-84393429D01*
X122212857Y-84322000D01*
X122355714Y-84250571D01*
X122498571Y-84250571D01*
X123641428Y-85250571D02*
X123641428Y-84464857D01*
X123569999Y-84322000D01*
X123427142Y-84250571D01*
X123141428Y-84250571D01*
X122998571Y-84322000D01*
X123641428Y-85179143D02*
X123498571Y-85250571D01*
X123141428Y-85250571D01*
X122998571Y-85179143D01*
X122927142Y-85036286D01*
X122927142Y-84893429D01*
X122998571Y-84750571D01*
X123141428Y-84679143D01*
X123498571Y-84679143D01*
X123641428Y-84607714D01*
X124998571Y-85179143D02*
X124855714Y-85250571D01*
X124570000Y-85250571D01*
X124427142Y-85179143D01*
X124355714Y-85107714D01*
X124284285Y-84964857D01*
X124284285Y-84536286D01*
X124355714Y-84393429D01*
X124427142Y-84322000D01*
X124570000Y-84250571D01*
X124855714Y-84250571D01*
X124998571Y-84322000D01*
X125641428Y-85250571D02*
X125641428Y-83750571D01*
X125784285Y-84679143D02*
X126212856Y-85250571D01*
X126212856Y-84250571D02*
X125641428Y-84822000D01*
X127427142Y-85179143D02*
X127284285Y-85250571D01*
X126998571Y-85250571D01*
X126855714Y-85179143D01*
X126784285Y-85036286D01*
X126784285Y-84464857D01*
X126855714Y-84322000D01*
X126998571Y-84250571D01*
X127284285Y-84250571D01*
X127427142Y-84322000D01*
X127498571Y-84464857D01*
X127498571Y-84607714D01*
X126784285Y-84750571D01*
X128141428Y-85250571D02*
X128141428Y-84250571D01*
X128141428Y-84536286D02*
X128212856Y-84393429D01*
X128284285Y-84322000D01*
X128427142Y-84250571D01*
X128569999Y-84250571D01*
X130212856Y-85250571D02*
X130212856Y-83750571D01*
X131069999Y-85250571D01*
X131069999Y-83750571D01*
X131998571Y-85250571D02*
X131855713Y-85179143D01*
X131784285Y-85107714D01*
X131712856Y-84964857D01*
X131712856Y-84536286D01*
X131784285Y-84393429D01*
X131855713Y-84322000D01*
X131998571Y-84250571D01*
X132212856Y-84250571D01*
X132355713Y-84322000D01*
X132427142Y-84393429D01*
X132498571Y-84536286D01*
X132498571Y-84964857D01*
X132427142Y-85107714D01*
X132355713Y-85179143D01*
X132212856Y-85250571D01*
X131998571Y-85250571D01*
X133784285Y-85250571D02*
X133784285Y-83750571D01*
X133784285Y-85179143D02*
X133641428Y-85250571D01*
X133355714Y-85250571D01*
X133212856Y-85179143D01*
X133141428Y-85107714D01*
X133069999Y-84964857D01*
X133069999Y-84536286D01*
X133141428Y-84393429D01*
X133212856Y-84322000D01*
X133355714Y-84250571D01*
X133641428Y-84250571D01*
X133784285Y-84322000D01*
X135069999Y-85179143D02*
X134927142Y-85250571D01*
X134641428Y-85250571D01*
X134498571Y-85179143D01*
X134427142Y-85036286D01*
X134427142Y-84464857D01*
X134498571Y-84322000D01*
X134641428Y-84250571D01*
X134927142Y-84250571D01*
X135069999Y-84322000D01*
X135141428Y-84464857D01*
X135141428Y-84607714D01*
X134427142Y-84750571D01*
X115784286Y-86800571D02*
X116141429Y-87800571D01*
X116498571Y-86800571D01*
X117855714Y-87800571D02*
X116998571Y-87800571D01*
X117427143Y-87800571D02*
X117427143Y-86300571D01*
X117284286Y-86514857D01*
X117141428Y-86657714D01*
X116998571Y-86729143D01*
X115927143Y-90350571D02*
X115927143Y-88850571D01*
X116570000Y-90350571D02*
X116570000Y-89564857D01*
X116498571Y-89422000D01*
X116355714Y-89350571D01*
X116141429Y-89350571D01*
X115998571Y-89422000D01*
X115927143Y-89493429D01*
X117070000Y-89350571D02*
X117641429Y-89350571D01*
X117284286Y-88850571D02*
X117284286Y-90136286D01*
X117355714Y-90279143D01*
X117498572Y-90350571D01*
X117641429Y-90350571D01*
X117927143Y-89350571D02*
X118498572Y-89350571D01*
X118141429Y-88850571D02*
X118141429Y-90136286D01*
X118212857Y-90279143D01*
X118355715Y-90350571D01*
X118498572Y-90350571D01*
X118998572Y-89350571D02*
X118998572Y-90850571D01*
X118998572Y-89422000D02*
X119141429Y-89350571D01*
X119427143Y-89350571D01*
X119570000Y-89422000D01*
X119641429Y-89493429D01*
X119712858Y-89636286D01*
X119712858Y-90064857D01*
X119641429Y-90207714D01*
X119570000Y-90279143D01*
X119427143Y-90350571D01*
X119141429Y-90350571D01*
X118998572Y-90279143D01*
X120355715Y-90207714D02*
X120427143Y-90279143D01*
X120355715Y-90350571D01*
X120284286Y-90279143D01*
X120355715Y-90207714D01*
X120355715Y-90350571D01*
X120355715Y-89422000D02*
X120427143Y-89493429D01*
X120355715Y-89564857D01*
X120284286Y-89493429D01*
X120355715Y-89422000D01*
X120355715Y-89564857D01*
X122141429Y-88779143D02*
X120855715Y-90707714D01*
X123712858Y-88779143D02*
X122427144Y-90707714D01*
X123998573Y-89350571D02*
X124570002Y-89350571D01*
X124212859Y-88850571D02*
X124212859Y-90136286D01*
X124284287Y-90279143D01*
X124427145Y-90350571D01*
X124570002Y-90350571D01*
X124855716Y-89350571D02*
X125427145Y-89350571D01*
X125070002Y-88850571D02*
X125070002Y-90136286D01*
X125141430Y-90279143D01*
X125284288Y-90350571D01*
X125427145Y-90350571D01*
X125927145Y-89350571D02*
X125927145Y-90350571D01*
X125927145Y-89493429D02*
X125998573Y-89422000D01*
X126141431Y-89350571D01*
X126355716Y-89350571D01*
X126498573Y-89422000D01*
X126570002Y-89564857D01*
X126570002Y-90350571D01*
X127070002Y-89350571D02*
X127641431Y-89350571D01*
X127284288Y-88850571D02*
X127284288Y-90136286D01*
X127355716Y-90279143D01*
X127498574Y-90350571D01*
X127641431Y-90350571D01*
X128141431Y-90350571D02*
X128141431Y-89350571D01*
X128141431Y-89636286D02*
X128212859Y-89493429D01*
X128284288Y-89422000D01*
X128427145Y-89350571D01*
X128570002Y-89350571D01*
X129712859Y-90350571D02*
X129712859Y-89564857D01*
X129641430Y-89422000D01*
X129498573Y-89350571D01*
X129212859Y-89350571D01*
X129070002Y-89422000D01*
X129712859Y-90279143D02*
X129570002Y-90350571D01*
X129212859Y-90350571D01*
X129070002Y-90279143D01*
X128998573Y-90136286D01*
X128998573Y-89993429D01*
X129070002Y-89850571D01*
X129212859Y-89779143D01*
X129570002Y-89779143D01*
X129712859Y-89707714D01*
X131070002Y-90279143D02*
X130927145Y-90350571D01*
X130641431Y-90350571D01*
X130498573Y-90279143D01*
X130427145Y-90207714D01*
X130355716Y-90064857D01*
X130355716Y-89636286D01*
X130427145Y-89493429D01*
X130498573Y-89422000D01*
X130641431Y-89350571D01*
X130927145Y-89350571D01*
X131070002Y-89422000D01*
X131712859Y-90350571D02*
X131712859Y-88850571D01*
X131855716Y-89779143D02*
X132284287Y-90350571D01*
X132284287Y-89350571D02*
X131712859Y-89922000D01*
X133498573Y-90279143D02*
X133355716Y-90350571D01*
X133070002Y-90350571D01*
X132927145Y-90279143D01*
X132855716Y-90136286D01*
X132855716Y-89564857D01*
X132927145Y-89422000D01*
X133070002Y-89350571D01*
X133355716Y-89350571D01*
X133498573Y-89422000D01*
X133570002Y-89564857D01*
X133570002Y-89707714D01*
X132855716Y-89850571D01*
X134212859Y-90350571D02*
X134212859Y-89350571D01*
X134212859Y-89636286D02*
X134284287Y-89493429D01*
X134355716Y-89422000D01*
X134498573Y-89350571D01*
X134641430Y-89350571D01*
X135141430Y-90207714D02*
X135212858Y-90279143D01*
X135141430Y-90350571D01*
X135070001Y-90279143D01*
X135141430Y-90207714D01*
X135141430Y-90350571D01*
X136498573Y-90279143D02*
X136355716Y-90350571D01*
X136070002Y-90350571D01*
X135927144Y-90279143D01*
X135855716Y-90207714D01*
X135784287Y-90064857D01*
X135784287Y-89636286D01*
X135855716Y-89493429D01*
X135927144Y-89422000D01*
X136070002Y-89350571D01*
X136355716Y-89350571D01*
X136498573Y-89422000D01*
X137355716Y-90350571D02*
X137212858Y-90279143D01*
X137141430Y-90207714D01*
X137070001Y-90064857D01*
X137070001Y-89636286D01*
X137141430Y-89493429D01*
X137212858Y-89422000D01*
X137355716Y-89350571D01*
X137570001Y-89350571D01*
X137712858Y-89422000D01*
X137784287Y-89493429D01*
X137855716Y-89636286D01*
X137855716Y-90064857D01*
X137784287Y-90207714D01*
X137712858Y-90279143D01*
X137570001Y-90350571D01*
X137355716Y-90350571D01*
X138498573Y-90350571D02*
X138498573Y-89350571D01*
X138498573Y-89493429D02*
X138570001Y-89422000D01*
X138712859Y-89350571D01*
X138927144Y-89350571D01*
X139070001Y-89422000D01*
X139141430Y-89564857D01*
X139141430Y-90350571D01*
X139141430Y-89564857D02*
X139212859Y-89422000D01*
X139355716Y-89350571D01*
X139570001Y-89350571D01*
X139712859Y-89422000D01*
X139784287Y-89564857D01*
X139784287Y-90350571D01*
D12*
X140690715Y-98024905D02*
X140309762Y-98024905D01*
X140309762Y-97224905D01*
X141109762Y-97224905D02*
X141262143Y-97224905D01*
X141338334Y-97263000D01*
X141414524Y-97339190D01*
X141452619Y-97491571D01*
X141452619Y-97758238D01*
X141414524Y-97910619D01*
X141338334Y-97986810D01*
X141262143Y-98024905D01*
X141109762Y-98024905D01*
X141033572Y-97986810D01*
X140957381Y-97910619D01*
X140919286Y-97758238D01*
X140919286Y-97491571D01*
X140957381Y-97339190D01*
X141033572Y-97263000D01*
X141109762Y-97224905D01*
X142252619Y-98024905D02*
X141985952Y-97643952D01*
X141795476Y-98024905D02*
X141795476Y-97224905D01*
X142100238Y-97224905D01*
X142176429Y-97263000D01*
X142214524Y-97301095D01*
X142252619Y-97377286D01*
X142252619Y-97491571D01*
X142214524Y-97567762D01*
X142176429Y-97605857D01*
X142100238Y-97643952D01*
X141795476Y-97643952D01*
X142557381Y-97796333D02*
X142938333Y-97796333D01*
X142481190Y-98024905D02*
X142747857Y-97224905D01*
X143014524Y-98024905D01*
X141668572Y-107423000D02*
X141592381Y-107384905D01*
X141478096Y-107384905D01*
X141363810Y-107423000D01*
X141287619Y-107499190D01*
X141249524Y-107575381D01*
X141211429Y-107727762D01*
X141211429Y-107842048D01*
X141249524Y-107994429D01*
X141287619Y-108070619D01*
X141363810Y-108146810D01*
X141478096Y-108184905D01*
X141554286Y-108184905D01*
X141668572Y-108146810D01*
X141706667Y-108108714D01*
X141706667Y-107842048D01*
X141554286Y-107842048D01*
X142049524Y-108184905D02*
X142049524Y-107384905D01*
X142354286Y-107384905D01*
X142430477Y-107423000D01*
X142468572Y-107461095D01*
X142506667Y-107537286D01*
X142506667Y-107651571D01*
X142468572Y-107727762D01*
X142430477Y-107765857D01*
X142354286Y-107803952D01*
X142049524Y-107803952D01*
X142811429Y-108146810D02*
X142925715Y-108184905D01*
X143116191Y-108184905D01*
X143192381Y-108146810D01*
X143230477Y-108108714D01*
X143268572Y-108032524D01*
X143268572Y-107956333D01*
X143230477Y-107880143D01*
X143192381Y-107842048D01*
X143116191Y-107803952D01*
X142963810Y-107765857D01*
X142887619Y-107727762D01*
X142849524Y-107689667D01*
X142811429Y-107613476D01*
X142811429Y-107537286D01*
X142849524Y-107461095D01*
X142887619Y-107423000D01*
X142963810Y-107384905D01*
X143154286Y-107384905D01*
X143268572Y-107423000D01*
X141446333Y-108781905D02*
X141598714Y-108781905D01*
X141674905Y-108820000D01*
X141751095Y-108896190D01*
X141789190Y-109048571D01*
X141789190Y-109315238D01*
X141751095Y-109467619D01*
X141674905Y-109543810D01*
X141598714Y-109581905D01*
X141446333Y-109581905D01*
X141370143Y-109543810D01*
X141293952Y-109467619D01*
X141255857Y-109315238D01*
X141255857Y-109048571D01*
X141293952Y-108896190D01*
X141370143Y-108820000D01*
X141446333Y-108781905D01*
X142474904Y-109048571D02*
X142474904Y-109581905D01*
X142132047Y-109048571D02*
X142132047Y-109467619D01*
X142170142Y-109543810D01*
X142246333Y-109581905D01*
X142360619Y-109581905D01*
X142436809Y-109543810D01*
X142474904Y-109505714D01*
X142741571Y-109048571D02*
X143046333Y-109048571D01*
X142855857Y-108781905D02*
X142855857Y-109467619D01*
X142893952Y-109543810D01*
X142970143Y-109581905D01*
X143046333Y-109581905D01*
X142005095Y-112121905D02*
X142005095Y-111321905D01*
X142386047Y-111588571D02*
X142386047Y-112121905D01*
X142386047Y-111664762D02*
X142424142Y-111626667D01*
X142500333Y-111588571D01*
X142614619Y-111588571D01*
X142690809Y-111626667D01*
X142728904Y-111702857D01*
X142728904Y-112121905D01*
X141376476Y-98621905D02*
X141833619Y-98621905D01*
X141605048Y-99421905D02*
X141605048Y-98621905D01*
X142024096Y-98621905D02*
X142557429Y-99421905D01*
X142557429Y-98621905D02*
X142024096Y-99421905D01*
X141979667Y-101961905D02*
X141713000Y-101580952D01*
X141522524Y-101961905D02*
X141522524Y-101161905D01*
X141827286Y-101161905D01*
X141903477Y-101200000D01*
X141941572Y-101238095D01*
X141979667Y-101314286D01*
X141979667Y-101428571D01*
X141941572Y-101504762D01*
X141903477Y-101542857D01*
X141827286Y-101580952D01*
X141522524Y-101580952D01*
X142246334Y-101161905D02*
X142779667Y-101961905D01*
X142779667Y-101161905D02*
X142246334Y-101961905D01*
X141725714Y-103740000D02*
X141649523Y-103701905D01*
X141535238Y-103701905D01*
X141420952Y-103740000D01*
X141344761Y-103816190D01*
X141306666Y-103892381D01*
X141268571Y-104044762D01*
X141268571Y-104159048D01*
X141306666Y-104311429D01*
X141344761Y-104387619D01*
X141420952Y-104463810D01*
X141535238Y-104501905D01*
X141611428Y-104501905D01*
X141725714Y-104463810D01*
X141763809Y-104425714D01*
X141763809Y-104159048D01*
X141611428Y-104159048D01*
X142106666Y-103968571D02*
X142106666Y-104501905D01*
X142106666Y-104044762D02*
X142144761Y-104006667D01*
X142220952Y-103968571D01*
X142335238Y-103968571D01*
X142411428Y-104006667D01*
X142449523Y-104082857D01*
X142449523Y-104501905D01*
X143173333Y-104501905D02*
X143173333Y-103701905D01*
X143173333Y-104463810D02*
X143097143Y-104501905D01*
X142944762Y-104501905D01*
X142868571Y-104463810D01*
X142830476Y-104425714D01*
X142792381Y-104349524D01*
X142792381Y-104120952D01*
X142830476Y-104044762D01*
X142868571Y-104006667D01*
X142944762Y-103968571D01*
X143097143Y-103968571D01*
X143173333Y-104006667D01*
X141287619Y-119576810D02*
X141401905Y-119614905D01*
X141592381Y-119614905D01*
X141668571Y-119576810D01*
X141706667Y-119538714D01*
X141744762Y-119462524D01*
X141744762Y-119386333D01*
X141706667Y-119310143D01*
X141668571Y-119272048D01*
X141592381Y-119233952D01*
X141440000Y-119195857D01*
X141363809Y-119157762D01*
X141325714Y-119119667D01*
X141287619Y-119043476D01*
X141287619Y-118967286D01*
X141325714Y-118891095D01*
X141363809Y-118853000D01*
X141440000Y-118814905D01*
X141630476Y-118814905D01*
X141744762Y-118853000D01*
X142544762Y-119538714D02*
X142506667Y-119576810D01*
X142392381Y-119614905D01*
X142316191Y-119614905D01*
X142201905Y-119576810D01*
X142125714Y-119500619D01*
X142087619Y-119424429D01*
X142049524Y-119272048D01*
X142049524Y-119157762D01*
X142087619Y-119005381D01*
X142125714Y-118929190D01*
X142201905Y-118853000D01*
X142316191Y-118814905D01*
X142392381Y-118814905D01*
X142506667Y-118853000D01*
X142544762Y-118891095D01*
X143268572Y-119614905D02*
X142887619Y-119614905D01*
X142887619Y-118814905D01*
X141268572Y-122370810D02*
X141382858Y-122408905D01*
X141573334Y-122408905D01*
X141649524Y-122370810D01*
X141687620Y-122332714D01*
X141725715Y-122256524D01*
X141725715Y-122180333D01*
X141687620Y-122104143D01*
X141649524Y-122066048D01*
X141573334Y-122027952D01*
X141420953Y-121989857D01*
X141344762Y-121951762D01*
X141306667Y-121913667D01*
X141268572Y-121837476D01*
X141268572Y-121761286D01*
X141306667Y-121685095D01*
X141344762Y-121647000D01*
X141420953Y-121608905D01*
X141611429Y-121608905D01*
X141725715Y-121647000D01*
X142068572Y-122408905D02*
X142068572Y-121608905D01*
X142259048Y-121608905D01*
X142373334Y-121647000D01*
X142449525Y-121723190D01*
X142487620Y-121799381D01*
X142525715Y-121951762D01*
X142525715Y-122066048D01*
X142487620Y-122218429D01*
X142449525Y-122294619D01*
X142373334Y-122370810D01*
X142259048Y-122408905D01*
X142068572Y-122408905D01*
X142830477Y-122180333D02*
X143211429Y-122180333D01*
X142754286Y-122408905D02*
X143020953Y-121608905D01*
X143287620Y-122408905D01*
X136391714Y-106280000D02*
X136315523Y-106241905D01*
X136201238Y-106241905D01*
X136086952Y-106280000D01*
X136010761Y-106356190D01*
X135972666Y-106432381D01*
X135934571Y-106584762D01*
X135934571Y-106699048D01*
X135972666Y-106851429D01*
X136010761Y-106927619D01*
X136086952Y-107003810D01*
X136201238Y-107041905D01*
X136277428Y-107041905D01*
X136391714Y-107003810D01*
X136429809Y-106965714D01*
X136429809Y-106699048D01*
X136277428Y-106699048D01*
X136772666Y-106508571D02*
X136772666Y-107041905D01*
X136772666Y-106584762D02*
X136810761Y-106546667D01*
X136886952Y-106508571D01*
X137001238Y-106508571D01*
X137077428Y-106546667D01*
X137115523Y-106622857D01*
X137115523Y-107041905D01*
X137839333Y-107041905D02*
X137839333Y-106241905D01*
X137839333Y-107003810D02*
X137763143Y-107041905D01*
X137610762Y-107041905D01*
X137534571Y-107003810D01*
X137496476Y-106965714D01*
X137458381Y-106889524D01*
X137458381Y-106660952D01*
X137496476Y-106584762D01*
X137534571Y-106546667D01*
X137610762Y-106508571D01*
X137763143Y-106508571D01*
X137839333Y-106546667D01*
X135731381Y-104501905D02*
X135731381Y-103701905D01*
X136112333Y-103968571D02*
X136112333Y-104501905D01*
X136112333Y-104044762D02*
X136150428Y-104006667D01*
X136226619Y-103968571D01*
X136340905Y-103968571D01*
X136417095Y-104006667D01*
X136455190Y-104082857D01*
X136455190Y-104501905D01*
X136645667Y-104578095D02*
X137255191Y-104578095D01*
X137864715Y-104501905D02*
X137407572Y-104501905D01*
X137636143Y-104501905D02*
X137636143Y-103701905D01*
X137559953Y-103816190D01*
X137483762Y-103892381D01*
X137407572Y-103930476D01*
X135985381Y-112121905D02*
X135985381Y-111321905D01*
X136366333Y-111588571D02*
X136366333Y-112121905D01*
X136366333Y-111664762D02*
X136404428Y-111626667D01*
X136480619Y-111588571D01*
X136594905Y-111588571D01*
X136671095Y-111626667D01*
X136709190Y-111702857D01*
X136709190Y-112121905D01*
X136899667Y-112198095D02*
X137509191Y-112198095D01*
X137852048Y-111321905D02*
X137928239Y-111321905D01*
X138004429Y-111360000D01*
X138042524Y-111398095D01*
X138080620Y-111474286D01*
X138118715Y-111626667D01*
X138118715Y-111817143D01*
X138080620Y-111969524D01*
X138042524Y-112045714D01*
X138004429Y-112083810D01*
X137928239Y-112121905D01*
X137852048Y-112121905D01*
X137775858Y-112083810D01*
X137737762Y-112045714D01*
X137699667Y-111969524D01*
X137661572Y-111817143D01*
X137661572Y-111626667D01*
X137699667Y-111474286D01*
X137737762Y-111398095D01*
X137775858Y-111360000D01*
X137852048Y-111321905D01*
X141852714Y-124187000D02*
X141776523Y-124148905D01*
X141662238Y-124148905D01*
X141547952Y-124187000D01*
X141471761Y-124263190D01*
X141433666Y-124339381D01*
X141395571Y-124491762D01*
X141395571Y-124606048D01*
X141433666Y-124758429D01*
X141471761Y-124834619D01*
X141547952Y-124910810D01*
X141662238Y-124948905D01*
X141738428Y-124948905D01*
X141852714Y-124910810D01*
X141890809Y-124872714D01*
X141890809Y-124606048D01*
X141738428Y-124606048D01*
X142233666Y-124415571D02*
X142233666Y-124948905D01*
X142233666Y-124491762D02*
X142271761Y-124453667D01*
X142347952Y-124415571D01*
X142462238Y-124415571D01*
X142538428Y-124453667D01*
X142576523Y-124529857D01*
X142576523Y-124948905D01*
X143300333Y-124948905D02*
X143300333Y-124148905D01*
X143300333Y-124910810D02*
X143224143Y-124948905D01*
X143071762Y-124948905D01*
X142995571Y-124910810D01*
X142957476Y-124872714D01*
X142919381Y-124796524D01*
X142919381Y-124567952D01*
X142957476Y-124491762D01*
X142995571Y-124453667D01*
X143071762Y-124415571D01*
X143224143Y-124415571D01*
X143300333Y-124453667D01*
X136518714Y-113900000D02*
X136442523Y-113861905D01*
X136328238Y-113861905D01*
X136213952Y-113900000D01*
X136137761Y-113976190D01*
X136099666Y-114052381D01*
X136061571Y-114204762D01*
X136061571Y-114319048D01*
X136099666Y-114471429D01*
X136137761Y-114547619D01*
X136213952Y-114623810D01*
X136328238Y-114661905D01*
X136404428Y-114661905D01*
X136518714Y-114623810D01*
X136556809Y-114585714D01*
X136556809Y-114319048D01*
X136404428Y-114319048D01*
X136899666Y-114128571D02*
X136899666Y-114661905D01*
X136899666Y-114204762D02*
X136937761Y-114166667D01*
X137013952Y-114128571D01*
X137128238Y-114128571D01*
X137204428Y-114166667D01*
X137242523Y-114242857D01*
X137242523Y-114661905D01*
X137966333Y-114661905D02*
X137966333Y-113861905D01*
X137966333Y-114623810D02*
X137890143Y-114661905D01*
X137737762Y-114661905D01*
X137661571Y-114623810D01*
X137623476Y-114585714D01*
X137585381Y-114509524D01*
X137585381Y-114280952D01*
X137623476Y-114204762D01*
X137661571Y-114166667D01*
X137737762Y-114128571D01*
X137890143Y-114128571D01*
X137966333Y-114166667D01*
X141725714Y-113900000D02*
X141649523Y-113861905D01*
X141535238Y-113861905D01*
X141420952Y-113900000D01*
X141344761Y-113976190D01*
X141306666Y-114052381D01*
X141268571Y-114204762D01*
X141268571Y-114319048D01*
X141306666Y-114471429D01*
X141344761Y-114547619D01*
X141420952Y-114623810D01*
X141535238Y-114661905D01*
X141611428Y-114661905D01*
X141725714Y-114623810D01*
X141763809Y-114585714D01*
X141763809Y-114319048D01*
X141611428Y-114319048D01*
X142106666Y-114128571D02*
X142106666Y-114661905D01*
X142106666Y-114204762D02*
X142144761Y-114166667D01*
X142220952Y-114128571D01*
X142335238Y-114128571D01*
X142411428Y-114166667D01*
X142449523Y-114242857D01*
X142449523Y-114661905D01*
X143173333Y-114661905D02*
X143173333Y-113861905D01*
X143173333Y-114623810D02*
X143097143Y-114661905D01*
X142944762Y-114661905D01*
X142868571Y-114623810D01*
X142830476Y-114585714D01*
X142792381Y-114509524D01*
X142792381Y-114280952D01*
X142830476Y-114204762D01*
X142868571Y-114166667D01*
X142944762Y-114128571D01*
X143097143Y-114128571D01*
X143173333Y-114166667D01*
D13*
X113376000Y-105401000D02*
X112176000Y-105401000D01*
X112176000Y-103641000D02*
X113376000Y-103641000D01*
D12*
X130750000Y-54940000D02*
X130750000Y-62840000D01*
X135950000Y-54940000D02*
X130750000Y-54940000D01*
X135950000Y-62840000D02*
X135950000Y-54940000D01*
X134771267Y-66040000D02*
G75*
G03X134771267Y-66040000I-1421267J0D01*
G01*
X135950000Y-66040000D02*
G75*
G03X135950000Y-66040000I-2600000J0D01*
G01*
X135550000Y-63840000D02*
X136550000Y-63840000D01*
X135550000Y-62840000D02*
X135550000Y-63840000D01*
X135550000Y-68240000D02*
X136550000Y-68240000D01*
X135550000Y-69240000D02*
X135550000Y-68240000D01*
X131150000Y-68240000D02*
X130150000Y-68240000D01*
X131150000Y-69240000D02*
X131150000Y-68240000D01*
X131150000Y-63840000D02*
X130150000Y-63840000D01*
X131150000Y-62840000D02*
X131150000Y-63840000D01*
X130150000Y-69240000D02*
X136550000Y-69240000D01*
X136550000Y-62840000D02*
X136550000Y-69240000D01*
X130150000Y-62840000D02*
X136550000Y-62840000D01*
X130150000Y-69240000D02*
X130150000Y-62840000D01*
D13*
X103120000Y-106696000D02*
X103120000Y-108696000D01*
X105160000Y-108696000D02*
X105160000Y-106696000D01*
X110402000Y-107450000D02*
X110402000Y-108450000D01*
X112102000Y-108450000D02*
X112102000Y-107450000D01*
X112610000Y-96258000D02*
X112610000Y-95258000D01*
X110910000Y-95258000D02*
X110910000Y-96258000D01*
X139788000Y-85590000D02*
X139788000Y-84590000D01*
X138088000Y-84590000D02*
X138088000Y-85590000D01*
X117944000Y-122166000D02*
X117944000Y-121166000D01*
X116244000Y-121166000D02*
X116244000Y-122166000D01*
X142582000Y-85590000D02*
X142582000Y-84590000D01*
X140882000Y-84590000D02*
X140882000Y-85590000D01*
X122516000Y-102862000D02*
X122516000Y-101862000D01*
X120816000Y-101862000D02*
X120816000Y-102862000D01*
X114642000Y-96258000D02*
X114642000Y-95258000D01*
X112942000Y-95258000D02*
X112942000Y-96258000D01*
X118118000Y-78320000D02*
X119118000Y-78320000D01*
X119118000Y-76620000D02*
X118118000Y-76620000D01*
X126230000Y-66333000D02*
X125230000Y-66333000D01*
X125230000Y-68033000D02*
X126230000Y-68033000D01*
X126150000Y-124214000D02*
X126150000Y-125214000D01*
X127850000Y-125214000D02*
X127850000Y-124214000D01*
X121500000Y-125214000D02*
X121500000Y-124214000D01*
X119800000Y-124214000D02*
X119800000Y-125214000D01*
X113800000Y-114134000D02*
X114800000Y-114134000D01*
X114800000Y-112434000D02*
X113800000Y-112434000D01*
X126230000Y-103544000D02*
X125230000Y-103544000D01*
X125230000Y-105244000D02*
X126230000Y-105244000D01*
X119896000Y-99656000D02*
X120896000Y-99656000D01*
X120896000Y-97956000D02*
X119896000Y-97956000D01*
X107958000Y-103720000D02*
X108958000Y-103720000D01*
X108958000Y-102020000D02*
X107958000Y-102020000D01*
X114610000Y-89410000D02*
X113680000Y-89410000D01*
X111450000Y-89410000D02*
X112380000Y-89410000D01*
X111450000Y-89410000D02*
X111450000Y-91570000D01*
X114610000Y-89410000D02*
X114610000Y-90870000D01*
D12*
X109220000Y-120350000D02*
X109220000Y-119650000D01*
X109220000Y-120950000D02*
X109220000Y-121250000D01*
X108920000Y-120850000D02*
X109520000Y-120850000D01*
X108920000Y-120350000D02*
X109220000Y-120850000D01*
X109520000Y-120350000D02*
X109220000Y-120850000D01*
X108920000Y-120350000D02*
X109520000Y-120350000D01*
X108520000Y-119750000D02*
X109920000Y-119750000D01*
X108520000Y-121550000D02*
X108520000Y-119750000D01*
X109920000Y-121550000D02*
X108520000Y-121550000D01*
X109920000Y-119750000D02*
X109920000Y-121550000D01*
D13*
X109814000Y-108850000D02*
X109814000Y-107050000D01*
X106594000Y-107050000D02*
X106594000Y-109500000D01*
D12*
X99940000Y-104595000D02*
X99290000Y-104595000D01*
X99990000Y-94995000D02*
X99290000Y-94995000D01*
X99290000Y-99695000D02*
X99290000Y-94995000D01*
X105290000Y-104595000D02*
X105290000Y-101495000D01*
X99990000Y-104595000D02*
X105290000Y-104595000D01*
X105290000Y-94995000D02*
X105290000Y-97895000D01*
X99990000Y-94995000D02*
X105290000Y-94995000D01*
X99990000Y-99695000D02*
X99990000Y-94995000D01*
X99290000Y-99695000D02*
X99290000Y-104595000D01*
X99990000Y-99695000D02*
X99990000Y-104595000D01*
D13*
X141030000Y-118050000D02*
X135830000Y-118050000D01*
X141030000Y-123190000D02*
X141030000Y-118050000D01*
X135830000Y-125790000D02*
X135830000Y-118050000D01*
X141030000Y-123190000D02*
X138430000Y-123190000D01*
X138430000Y-123190000D02*
X138430000Y-125790000D01*
X138430000Y-125790000D02*
X135830000Y-125790000D01*
X141030000Y-124460000D02*
X141030000Y-125790000D01*
X141030000Y-125790000D02*
X139700000Y-125790000D01*
X102810000Y-115630000D02*
X105470000Y-115630000D01*
X102810000Y-113030000D02*
X102810000Y-115630000D01*
X105470000Y-113030000D02*
X105470000Y-115630000D01*
X102810000Y-113030000D02*
X105470000Y-113030000D01*
X102810000Y-111760000D02*
X102810000Y-110430000D01*
X102810000Y-110430000D02*
X104140000Y-110430000D01*
X102810000Y-123250000D02*
X105470000Y-123250000D01*
X102810000Y-120650000D02*
X102810000Y-123250000D01*
X105470000Y-120650000D02*
X105470000Y-123250000D01*
X102810000Y-120650000D02*
X105470000Y-120650000D01*
X102810000Y-119380000D02*
X102810000Y-118050000D01*
X102810000Y-118050000D02*
X104140000Y-118050000D01*
X143450000Y-95310000D02*
X146110000Y-95310000D01*
X143450000Y-82550000D02*
X143450000Y-95310000D01*
X146110000Y-82550000D02*
X146110000Y-95310000D01*
X143450000Y-82550000D02*
X146110000Y-82550000D01*
X143450000Y-81280000D02*
X143450000Y-79950000D01*
X143450000Y-79950000D02*
X144780000Y-79950000D01*
X110430000Y-118110000D02*
X110430000Y-118170000D01*
X110430000Y-118170000D02*
X113090000Y-118170000D01*
X113090000Y-118170000D02*
X113090000Y-118110000D01*
X113090000Y-118110000D02*
X110430000Y-118110000D01*
X110430000Y-116840000D02*
X110430000Y-115510000D01*
X110430000Y-115510000D02*
X111760000Y-115510000D01*
X107890000Y-85090000D02*
X107890000Y-85150000D01*
X107890000Y-85150000D02*
X110550000Y-85150000D01*
X110550000Y-85150000D02*
X110550000Y-85090000D01*
X110550000Y-85090000D02*
X107890000Y-85090000D01*
X107890000Y-83820000D02*
X107890000Y-82490000D01*
X107890000Y-82490000D02*
X109220000Y-82490000D01*
X110430000Y-125730000D02*
X110430000Y-125790000D01*
X110430000Y-125790000D02*
X113090000Y-125790000D01*
X113090000Y-125790000D02*
X113090000Y-125730000D01*
X113090000Y-125730000D02*
X110430000Y-125730000D01*
X110430000Y-124460000D02*
X110430000Y-123130000D01*
X110430000Y-123130000D02*
X111760000Y-123130000D01*
X143450000Y-105470000D02*
X146110000Y-105470000D01*
X143450000Y-100330000D02*
X143450000Y-105470000D01*
X146110000Y-100330000D02*
X146110000Y-105470000D01*
X143450000Y-100330000D02*
X146110000Y-100330000D01*
X143450000Y-99060000D02*
X143450000Y-97730000D01*
X143450000Y-97730000D02*
X144780000Y-97730000D01*
X143450000Y-125790000D02*
X146110000Y-125790000D01*
X143450000Y-120650000D02*
X143450000Y-125790000D01*
X146110000Y-120650000D02*
X146110000Y-125790000D01*
X143450000Y-120650000D02*
X146110000Y-120650000D01*
X143450000Y-119380000D02*
X143450000Y-118050000D01*
X143450000Y-118050000D02*
X144780000Y-118050000D01*
X143450000Y-115630000D02*
X146110000Y-115630000D01*
X143450000Y-110490000D02*
X143450000Y-115630000D01*
X146110000Y-110490000D02*
X146110000Y-115630000D01*
X143450000Y-110490000D02*
X146110000Y-110490000D01*
X143450000Y-109220000D02*
X143450000Y-107890000D01*
X143450000Y-107890000D02*
X144780000Y-107890000D01*
X138370000Y-115630000D02*
X141030000Y-115630000D01*
X138370000Y-113030000D02*
X138370000Y-115630000D01*
X141030000Y-113030000D02*
X141030000Y-115630000D01*
X138370000Y-113030000D02*
X141030000Y-113030000D01*
X138370000Y-111760000D02*
X138370000Y-110430000D01*
X138370000Y-110430000D02*
X139700000Y-110430000D01*
X138370000Y-108010000D02*
X141030000Y-108010000D01*
X138370000Y-105410000D02*
X138370000Y-108010000D01*
X141030000Y-105410000D02*
X141030000Y-108010000D01*
X138370000Y-105410000D02*
X141030000Y-105410000D01*
X138370000Y-104140000D02*
X138370000Y-102810000D01*
X138370000Y-102810000D02*
X139700000Y-102810000D01*
X113402000Y-79664000D02*
X113402000Y-80864000D01*
X111642000Y-80864000D02*
X111642000Y-79664000D01*
X111370000Y-79664000D02*
X111370000Y-80864000D01*
X109610000Y-80864000D02*
X109610000Y-79664000D01*
X108112000Y-99450000D02*
X109312000Y-99450000D01*
X109312000Y-101210000D02*
X108112000Y-101210000D01*
X108112000Y-97418000D02*
X109312000Y-97418000D01*
X109312000Y-99178000D02*
X108112000Y-99178000D01*
X135500000Y-121828000D02*
X135500000Y-123028000D01*
X133740000Y-123028000D02*
X133740000Y-121828000D01*
X128940000Y-96656000D02*
X130140000Y-96656000D01*
X130140000Y-98416000D02*
X128940000Y-98416000D01*
X128940000Y-99450000D02*
X130140000Y-99450000D01*
X130140000Y-101210000D02*
X128940000Y-101210000D01*
X122520000Y-80890000D02*
X121320000Y-80890000D01*
X121320000Y-79130000D02*
X122520000Y-79130000D01*
X106308000Y-113630000D02*
X106308000Y-112430000D01*
X108068000Y-112430000D02*
X108068000Y-113630000D01*
X122520000Y-83176000D02*
X121320000Y-83176000D01*
X121320000Y-81416000D02*
X122520000Y-81416000D01*
X108068000Y-120050000D02*
X108068000Y-121250000D01*
X106308000Y-121250000D02*
X106308000Y-120050000D01*
X107096000Y-103768000D02*
X108296000Y-103768000D01*
X108296000Y-105528000D02*
X107096000Y-105528000D01*
X126330000Y-103369000D02*
X125130000Y-103369000D01*
X125130000Y-101609000D02*
X126330000Y-101609000D01*
X132452000Y-104048000D02*
X132452000Y-105248000D01*
X130692000Y-105248000D02*
X130692000Y-104048000D01*
D12*
X100140000Y-80495000D02*
X100140000Y-93495000D01*
X102140000Y-80495000D02*
X106140000Y-80495000D01*
X102140000Y-93495000D02*
X102140000Y-80495000D01*
X106140000Y-93495000D02*
X102140000Y-93495000D01*
X106140000Y-80495000D02*
X106140000Y-93495000D01*
D13*
X120595000Y-134040000D02*
X120595000Y-134010000D01*
X120595000Y-127580000D02*
X120595000Y-127610000D01*
X127055000Y-127580000D02*
X127055000Y-127610000D01*
X127055000Y-134010000D02*
X127055000Y-134040000D01*
X120595000Y-132110000D02*
X120595000Y-129510000D01*
X127055000Y-134040000D02*
X120595000Y-134040000D01*
X127055000Y-132110000D02*
X127055000Y-129510000D01*
X127055000Y-127580000D02*
X120595000Y-127580000D01*
X107102000Y-92572000D02*
X107102000Y-94372000D01*
X110322000Y-94372000D02*
X110322000Y-91922000D01*
D12*
X113310000Y-74930000D02*
X122910000Y-74930000D01*
X113310000Y-60930000D02*
X122910000Y-60930000D01*
X122910000Y-60930000D02*
X122910000Y-74930000D01*
X113310000Y-60930000D02*
X113310000Y-74930000D01*
X119285000Y-107855000D02*
X119285000Y-108430000D01*
X129635000Y-107855000D02*
X129635000Y-108530000D01*
X129635000Y-118205000D02*
X129635000Y-117530000D01*
X119285000Y-118205000D02*
X119285000Y-117530000D01*
X119285000Y-107855000D02*
X119960000Y-107855000D01*
X119285000Y-118205000D02*
X119960000Y-118205000D01*
X129635000Y-118205000D02*
X128960000Y-118205000D01*
X129635000Y-107855000D02*
X128960000Y-107855000D01*
X119285000Y-108430000D02*
X118010000Y-108430000D01*
X124744000Y-126314000D02*
X122144000Y-126314000D01*
X124744000Y-123114000D02*
X124744000Y-126314000D01*
X122144000Y-123114000D02*
X124744000Y-123114000D01*
X122144000Y-126314000D02*
X122144000Y-123114000D01*
X122914000Y-100914000D02*
X123014000Y-100914000D01*
X123014000Y-100914000D02*
X123114000Y-100914000D01*
X122914000Y-100514000D02*
X123114000Y-100514000D01*
X122914000Y-100914000D02*
X122914000Y-100514000D01*
X123114000Y-100514000D02*
X123514000Y-100914000D01*
X123114000Y-99314000D02*
X123114000Y-100914000D01*
X123114000Y-100914000D02*
X126314000Y-100914000D01*
X126314000Y-100914000D02*
X126314000Y-97714000D01*
X126314000Y-97714000D02*
X123114000Y-97714000D01*
X123114000Y-97714000D02*
X123114000Y-99314000D01*
D13*
X135798000Y-99323000D02*
X136998000Y-99323000D01*
X136998000Y-101083000D02*
X135798000Y-101083000D01*
D12*
X112261714Y-103232905D02*
X111995047Y-102851952D01*
X111804571Y-103232905D02*
X111804571Y-102432905D01*
X112109333Y-102432905D01*
X112185524Y-102471000D01*
X112223619Y-102509095D01*
X112261714Y-102585286D01*
X112261714Y-102699571D01*
X112223619Y-102775762D01*
X112185524Y-102813857D01*
X112109333Y-102851952D01*
X111804571Y-102851952D01*
X112566476Y-102509095D02*
X112604571Y-102471000D01*
X112680762Y-102432905D01*
X112871238Y-102432905D01*
X112947428Y-102471000D01*
X112985524Y-102509095D01*
X113023619Y-102585286D01*
X113023619Y-102661476D01*
X112985524Y-102775762D01*
X112528381Y-103232905D01*
X113023619Y-103232905D01*
X113518857Y-102432905D02*
X113595048Y-102432905D01*
X113671238Y-102471000D01*
X113709333Y-102509095D01*
X113747429Y-102585286D01*
X113785524Y-102737667D01*
X113785524Y-102928143D01*
X113747429Y-103080524D01*
X113709333Y-103156714D01*
X113671238Y-103194810D01*
X113595048Y-103232905D01*
X113518857Y-103232905D01*
X113442667Y-103194810D01*
X113404571Y-103156714D01*
X113366476Y-103080524D01*
X113328381Y-102928143D01*
X113328381Y-102737667D01*
X113366476Y-102585286D01*
X113404571Y-102509095D01*
X113442667Y-102471000D01*
X113518857Y-102432905D01*
X133083334Y-70554905D02*
X133083334Y-71126333D01*
X133045238Y-71240619D01*
X132969048Y-71316810D01*
X132854762Y-71354905D01*
X132778572Y-71354905D01*
X133807143Y-70554905D02*
X133654762Y-70554905D01*
X133578572Y-70593000D01*
X133540477Y-70631095D01*
X133464286Y-70745381D01*
X133426191Y-70897762D01*
X133426191Y-71202524D01*
X133464286Y-71278714D01*
X133502381Y-71316810D01*
X133578572Y-71354905D01*
X133730953Y-71354905D01*
X133807143Y-71316810D01*
X133845239Y-71278714D01*
X133883334Y-71202524D01*
X133883334Y-71012048D01*
X133845239Y-70935857D01*
X133807143Y-70897762D01*
X133730953Y-70859667D01*
X133578572Y-70859667D01*
X133502381Y-70897762D01*
X133464286Y-70935857D01*
X133426191Y-71012048D01*
X102675714Y-107829333D02*
X102713810Y-107867428D01*
X102751905Y-107981714D01*
X102751905Y-108057904D01*
X102713810Y-108172190D01*
X102637619Y-108248381D01*
X102561429Y-108286476D01*
X102409048Y-108324571D01*
X102294762Y-108324571D01*
X102142381Y-108286476D01*
X102066190Y-108248381D01*
X101990000Y-108172190D01*
X101951905Y-108057904D01*
X101951905Y-107981714D01*
X101990000Y-107867428D01*
X102028095Y-107829333D01*
X102751905Y-107067428D02*
X102751905Y-107524571D01*
X102751905Y-107296000D02*
X101951905Y-107296000D01*
X102066190Y-107372190D01*
X102142381Y-107448381D01*
X102180476Y-107524571D01*
X112896667Y-108235714D02*
X112858572Y-108273810D01*
X112744286Y-108311905D01*
X112668096Y-108311905D01*
X112553810Y-108273810D01*
X112477619Y-108197619D01*
X112439524Y-108121429D01*
X112401429Y-107969048D01*
X112401429Y-107854762D01*
X112439524Y-107702381D01*
X112477619Y-107626190D01*
X112553810Y-107550000D01*
X112668096Y-107511905D01*
X112744286Y-107511905D01*
X112858572Y-107550000D01*
X112896667Y-107588095D01*
X113201429Y-107588095D02*
X113239524Y-107550000D01*
X113315715Y-107511905D01*
X113506191Y-107511905D01*
X113582381Y-107550000D01*
X113620477Y-107588095D01*
X113658572Y-107664286D01*
X113658572Y-107740476D01*
X113620477Y-107854762D01*
X113163334Y-108311905D01*
X113658572Y-108311905D01*
X111499667Y-98329714D02*
X111461572Y-98367810D01*
X111347286Y-98405905D01*
X111271096Y-98405905D01*
X111156810Y-98367810D01*
X111080619Y-98291619D01*
X111042524Y-98215429D01*
X111004429Y-98063048D01*
X111004429Y-97948762D01*
X111042524Y-97796381D01*
X111080619Y-97720190D01*
X111156810Y-97644000D01*
X111271096Y-97605905D01*
X111347286Y-97605905D01*
X111461572Y-97644000D01*
X111499667Y-97682095D01*
X112223477Y-97605905D02*
X111842524Y-97605905D01*
X111804429Y-97986857D01*
X111842524Y-97948762D01*
X111918715Y-97910667D01*
X112109191Y-97910667D01*
X112185381Y-97948762D01*
X112223477Y-97986857D01*
X112261572Y-98063048D01*
X112261572Y-98253524D01*
X112223477Y-98329714D01*
X112185381Y-98367810D01*
X112109191Y-98405905D01*
X111918715Y-98405905D01*
X111842524Y-98367810D01*
X111804429Y-98329714D01*
X138804667Y-82835714D02*
X138766572Y-82873810D01*
X138652286Y-82911905D01*
X138576096Y-82911905D01*
X138461810Y-82873810D01*
X138385619Y-82797619D01*
X138347524Y-82721429D01*
X138309429Y-82569048D01*
X138309429Y-82454762D01*
X138347524Y-82302381D01*
X138385619Y-82226190D01*
X138461810Y-82150000D01*
X138576096Y-82111905D01*
X138652286Y-82111905D01*
X138766572Y-82150000D01*
X138804667Y-82188095D01*
X139490381Y-82111905D02*
X139338000Y-82111905D01*
X139261810Y-82150000D01*
X139223715Y-82188095D01*
X139147524Y-82302381D01*
X139109429Y-82454762D01*
X139109429Y-82759524D01*
X139147524Y-82835714D01*
X139185619Y-82873810D01*
X139261810Y-82911905D01*
X139414191Y-82911905D01*
X139490381Y-82873810D01*
X139528477Y-82835714D01*
X139566572Y-82759524D01*
X139566572Y-82569048D01*
X139528477Y-82492857D01*
X139490381Y-82454762D01*
X139414191Y-82416667D01*
X139261810Y-82416667D01*
X139185619Y-82454762D01*
X139147524Y-82492857D01*
X139109429Y-82569048D01*
X115182667Y-121951714D02*
X115144572Y-121989810D01*
X115030286Y-122027905D01*
X114954096Y-122027905D01*
X114839810Y-121989810D01*
X114763619Y-121913619D01*
X114725524Y-121837429D01*
X114687429Y-121685048D01*
X114687429Y-121570762D01*
X114725524Y-121418381D01*
X114763619Y-121342190D01*
X114839810Y-121266000D01*
X114954096Y-121227905D01*
X115030286Y-121227905D01*
X115144572Y-121266000D01*
X115182667Y-121304095D01*
X115449334Y-121227905D02*
X115982667Y-121227905D01*
X115639810Y-122027905D01*
X141725667Y-82835714D02*
X141687572Y-82873810D01*
X141573286Y-82911905D01*
X141497096Y-82911905D01*
X141382810Y-82873810D01*
X141306619Y-82797619D01*
X141268524Y-82721429D01*
X141230429Y-82569048D01*
X141230429Y-82454762D01*
X141268524Y-82302381D01*
X141306619Y-82226190D01*
X141382810Y-82150000D01*
X141497096Y-82111905D01*
X141573286Y-82111905D01*
X141687572Y-82150000D01*
X141725667Y-82188095D01*
X142182810Y-82454762D02*
X142106619Y-82416667D01*
X142068524Y-82378571D01*
X142030429Y-82302381D01*
X142030429Y-82264286D01*
X142068524Y-82188095D01*
X142106619Y-82150000D01*
X142182810Y-82111905D01*
X142335191Y-82111905D01*
X142411381Y-82150000D01*
X142449477Y-82188095D01*
X142487572Y-82264286D01*
X142487572Y-82302381D01*
X142449477Y-82378571D01*
X142411381Y-82416667D01*
X142335191Y-82454762D01*
X142182810Y-82454762D01*
X142106619Y-82492857D01*
X142068524Y-82530952D01*
X142030429Y-82607143D01*
X142030429Y-82759524D01*
X142068524Y-82835714D01*
X142106619Y-82873810D01*
X142182810Y-82911905D01*
X142335191Y-82911905D01*
X142411381Y-82873810D01*
X142449477Y-82835714D01*
X142487572Y-82759524D01*
X142487572Y-82607143D01*
X142449477Y-82530952D01*
X142411381Y-82492857D01*
X142335191Y-82454762D01*
X119754667Y-104679714D02*
X119716572Y-104717810D01*
X119602286Y-104755905D01*
X119526096Y-104755905D01*
X119411810Y-104717810D01*
X119335619Y-104641619D01*
X119297524Y-104565429D01*
X119259429Y-104413048D01*
X119259429Y-104298762D01*
X119297524Y-104146381D01*
X119335619Y-104070190D01*
X119411810Y-103994000D01*
X119526096Y-103955905D01*
X119602286Y-103955905D01*
X119716572Y-103994000D01*
X119754667Y-104032095D01*
X120135619Y-104755905D02*
X120288000Y-104755905D01*
X120364191Y-104717810D01*
X120402286Y-104679714D01*
X120478477Y-104565429D01*
X120516572Y-104413048D01*
X120516572Y-104108286D01*
X120478477Y-104032095D01*
X120440381Y-103994000D01*
X120364191Y-103955905D01*
X120211810Y-103955905D01*
X120135619Y-103994000D01*
X120097524Y-104032095D01*
X120059429Y-104108286D01*
X120059429Y-104298762D01*
X120097524Y-104374952D01*
X120135619Y-104413048D01*
X120211810Y-104451143D01*
X120364191Y-104451143D01*
X120440381Y-104413048D01*
X120478477Y-104374952D01*
X120516572Y-104298762D01*
X113404714Y-98329714D02*
X113366619Y-98367810D01*
X113252333Y-98405905D01*
X113176143Y-98405905D01*
X113061857Y-98367810D01*
X112985666Y-98291619D01*
X112947571Y-98215429D01*
X112909476Y-98063048D01*
X112909476Y-97948762D01*
X112947571Y-97796381D01*
X112985666Y-97720190D01*
X113061857Y-97644000D01*
X113176143Y-97605905D01*
X113252333Y-97605905D01*
X113366619Y-97644000D01*
X113404714Y-97682095D01*
X114166619Y-98405905D02*
X113709476Y-98405905D01*
X113938047Y-98405905D02*
X113938047Y-97605905D01*
X113861857Y-97720190D01*
X113785666Y-97796381D01*
X113709476Y-97834476D01*
X114928524Y-98405905D02*
X114471381Y-98405905D01*
X114699952Y-98405905D02*
X114699952Y-97605905D01*
X114623762Y-97720190D01*
X114547571Y-97796381D01*
X114471381Y-97834476D01*
X117595714Y-79279714D02*
X117557619Y-79317810D01*
X117443333Y-79355905D01*
X117367143Y-79355905D01*
X117252857Y-79317810D01*
X117176666Y-79241619D01*
X117138571Y-79165429D01*
X117100476Y-79013048D01*
X117100476Y-78898762D01*
X117138571Y-78746381D01*
X117176666Y-78670190D01*
X117252857Y-78594000D01*
X117367143Y-78555905D01*
X117443333Y-78555905D01*
X117557619Y-78594000D01*
X117595714Y-78632095D01*
X118357619Y-79355905D02*
X117900476Y-79355905D01*
X118129047Y-79355905D02*
X118129047Y-78555905D01*
X118052857Y-78670190D01*
X117976666Y-78746381D01*
X117900476Y-78784476D01*
X118662381Y-78632095D02*
X118700476Y-78594000D01*
X118776667Y-78555905D01*
X118967143Y-78555905D01*
X119043333Y-78594000D01*
X119081429Y-78632095D01*
X119119524Y-78708286D01*
X119119524Y-78784476D01*
X119081429Y-78898762D01*
X118624286Y-79355905D01*
X119119524Y-79355905D01*
X128390714Y-67468714D02*
X128352619Y-67506810D01*
X128238333Y-67544905D01*
X128162143Y-67544905D01*
X128047857Y-67506810D01*
X127971666Y-67430619D01*
X127933571Y-67354429D01*
X127895476Y-67202048D01*
X127895476Y-67087762D01*
X127933571Y-66935381D01*
X127971666Y-66859190D01*
X128047857Y-66783000D01*
X128162143Y-66744905D01*
X128238333Y-66744905D01*
X128352619Y-66783000D01*
X128390714Y-66821095D01*
X129152619Y-67544905D02*
X128695476Y-67544905D01*
X128924047Y-67544905D02*
X128924047Y-66744905D01*
X128847857Y-66859190D01*
X128771666Y-66935381D01*
X128695476Y-66973476D01*
X129419286Y-66744905D02*
X129914524Y-66744905D01*
X129647857Y-67049667D01*
X129762143Y-67049667D01*
X129838333Y-67087762D01*
X129876429Y-67125857D01*
X129914524Y-67202048D01*
X129914524Y-67392524D01*
X129876429Y-67468714D01*
X129838333Y-67506810D01*
X129762143Y-67544905D01*
X129533571Y-67544905D01*
X129457381Y-67506810D01*
X129419286Y-67468714D01*
X128644714Y-124999714D02*
X128606619Y-125037810D01*
X128492333Y-125075905D01*
X128416143Y-125075905D01*
X128301857Y-125037810D01*
X128225666Y-124961619D01*
X128187571Y-124885429D01*
X128149476Y-124733048D01*
X128149476Y-124618762D01*
X128187571Y-124466381D01*
X128225666Y-124390190D01*
X128301857Y-124314000D01*
X128416143Y-124275905D01*
X128492333Y-124275905D01*
X128606619Y-124314000D01*
X128644714Y-124352095D01*
X129406619Y-125075905D02*
X128949476Y-125075905D01*
X129178047Y-125075905D02*
X129178047Y-124275905D01*
X129101857Y-124390190D01*
X129025666Y-124466381D01*
X128949476Y-124504476D01*
X130092333Y-124542571D02*
X130092333Y-125075905D01*
X129901857Y-124237810D02*
X129711381Y-124809238D01*
X130206619Y-124809238D01*
X117976714Y-125126714D02*
X117938619Y-125164810D01*
X117824333Y-125202905D01*
X117748143Y-125202905D01*
X117633857Y-125164810D01*
X117557666Y-125088619D01*
X117519571Y-125012429D01*
X117481476Y-124860048D01*
X117481476Y-124745762D01*
X117519571Y-124593381D01*
X117557666Y-124517190D01*
X117633857Y-124441000D01*
X117748143Y-124402905D01*
X117824333Y-124402905D01*
X117938619Y-124441000D01*
X117976714Y-124479095D01*
X118738619Y-125202905D02*
X118281476Y-125202905D01*
X118510047Y-125202905D02*
X118510047Y-124402905D01*
X118433857Y-124517190D01*
X118357666Y-124593381D01*
X118281476Y-124631476D01*
X119462429Y-124402905D02*
X119081476Y-124402905D01*
X119043381Y-124783857D01*
X119081476Y-124745762D01*
X119157667Y-124707667D01*
X119348143Y-124707667D01*
X119424333Y-124745762D01*
X119462429Y-124783857D01*
X119500524Y-124860048D01*
X119500524Y-125050524D01*
X119462429Y-125126714D01*
X119424333Y-125164810D01*
X119348143Y-125202905D01*
X119157667Y-125202905D01*
X119081476Y-125164810D01*
X119043381Y-125126714D01*
X113785714Y-115069714D02*
X113747619Y-115107810D01*
X113633333Y-115145905D01*
X113557143Y-115145905D01*
X113442857Y-115107810D01*
X113366666Y-115031619D01*
X113328571Y-114955429D01*
X113290476Y-114803048D01*
X113290476Y-114688762D01*
X113328571Y-114536381D01*
X113366666Y-114460190D01*
X113442857Y-114384000D01*
X113557143Y-114345905D01*
X113633333Y-114345905D01*
X113747619Y-114384000D01*
X113785714Y-114422095D01*
X114547619Y-115145905D02*
X114090476Y-115145905D01*
X114319047Y-115145905D02*
X114319047Y-114345905D01*
X114242857Y-114460190D01*
X114166666Y-114536381D01*
X114090476Y-114574476D01*
X115233333Y-114345905D02*
X115080952Y-114345905D01*
X115004762Y-114384000D01*
X114966667Y-114422095D01*
X114890476Y-114536381D01*
X114852381Y-114688762D01*
X114852381Y-114993524D01*
X114890476Y-115069714D01*
X114928571Y-115107810D01*
X115004762Y-115145905D01*
X115157143Y-115145905D01*
X115233333Y-115107810D01*
X115271429Y-115069714D01*
X115309524Y-114993524D01*
X115309524Y-114803048D01*
X115271429Y-114726857D01*
X115233333Y-114688762D01*
X115157143Y-114650667D01*
X115004762Y-114650667D01*
X114928571Y-114688762D01*
X114890476Y-114726857D01*
X114852381Y-114803048D01*
X128009714Y-105441714D02*
X127971619Y-105479810D01*
X127857333Y-105517905D01*
X127781143Y-105517905D01*
X127666857Y-105479810D01*
X127590666Y-105403619D01*
X127552571Y-105327429D01*
X127514476Y-105175048D01*
X127514476Y-105060762D01*
X127552571Y-104908381D01*
X127590666Y-104832190D01*
X127666857Y-104756000D01*
X127781143Y-104717905D01*
X127857333Y-104717905D01*
X127971619Y-104756000D01*
X128009714Y-104794095D01*
X128771619Y-105517905D02*
X128314476Y-105517905D01*
X128543047Y-105517905D02*
X128543047Y-104717905D01*
X128466857Y-104832190D01*
X128390666Y-104908381D01*
X128314476Y-104946476D01*
X129038286Y-104717905D02*
X129571619Y-104717905D01*
X129228762Y-105517905D01*
X116960714Y-99091714D02*
X116922619Y-99129810D01*
X116808333Y-99167905D01*
X116732143Y-99167905D01*
X116617857Y-99129810D01*
X116541666Y-99053619D01*
X116503571Y-98977429D01*
X116465476Y-98825048D01*
X116465476Y-98710762D01*
X116503571Y-98558381D01*
X116541666Y-98482190D01*
X116617857Y-98406000D01*
X116732143Y-98367905D01*
X116808333Y-98367905D01*
X116922619Y-98406000D01*
X116960714Y-98444095D01*
X117722619Y-99167905D02*
X117265476Y-99167905D01*
X117494047Y-99167905D02*
X117494047Y-98367905D01*
X117417857Y-98482190D01*
X117341666Y-98558381D01*
X117265476Y-98596476D01*
X118179762Y-98710762D02*
X118103571Y-98672667D01*
X118065476Y-98634571D01*
X118027381Y-98558381D01*
X118027381Y-98520286D01*
X118065476Y-98444095D01*
X118103571Y-98406000D01*
X118179762Y-98367905D01*
X118332143Y-98367905D01*
X118408333Y-98406000D01*
X118446429Y-98444095D01*
X118484524Y-98520286D01*
X118484524Y-98558381D01*
X118446429Y-98634571D01*
X118408333Y-98672667D01*
X118332143Y-98710762D01*
X118179762Y-98710762D01*
X118103571Y-98748857D01*
X118065476Y-98786952D01*
X118027381Y-98863143D01*
X118027381Y-99015524D01*
X118065476Y-99091714D01*
X118103571Y-99129810D01*
X118179762Y-99167905D01*
X118332143Y-99167905D01*
X118408333Y-99129810D01*
X118446429Y-99091714D01*
X118484524Y-99015524D01*
X118484524Y-98863143D01*
X118446429Y-98786952D01*
X118408333Y-98748857D01*
X118332143Y-98710762D01*
X108070714Y-101885714D02*
X108032619Y-101923810D01*
X107918333Y-101961905D01*
X107842143Y-101961905D01*
X107727857Y-101923810D01*
X107651666Y-101847619D01*
X107613571Y-101771429D01*
X107575476Y-101619048D01*
X107575476Y-101504762D01*
X107613571Y-101352381D01*
X107651666Y-101276190D01*
X107727857Y-101200000D01*
X107842143Y-101161905D01*
X107918333Y-101161905D01*
X108032619Y-101200000D01*
X108070714Y-101238095D01*
X108832619Y-101961905D02*
X108375476Y-101961905D01*
X108604047Y-101961905D02*
X108604047Y-101161905D01*
X108527857Y-101276190D01*
X108451666Y-101352381D01*
X108375476Y-101390476D01*
X109213571Y-101961905D02*
X109365952Y-101961905D01*
X109442143Y-101923810D01*
X109480238Y-101885714D01*
X109556429Y-101771429D01*
X109594524Y-101619048D01*
X109594524Y-101314286D01*
X109556429Y-101238095D01*
X109518333Y-101200000D01*
X109442143Y-101161905D01*
X109289762Y-101161905D01*
X109213571Y-101200000D01*
X109175476Y-101238095D01*
X109137381Y-101314286D01*
X109137381Y-101504762D01*
X109175476Y-101580952D01*
X109213571Y-101619048D01*
X109289762Y-101657143D01*
X109442143Y-101657143D01*
X109518333Y-101619048D01*
X109556429Y-101580952D01*
X109594524Y-101504762D01*
X109899524Y-90404905D02*
X109899524Y-89604905D01*
X110090000Y-89604905D01*
X110204286Y-89643000D01*
X110280477Y-89719190D01*
X110318572Y-89795381D01*
X110356667Y-89947762D01*
X110356667Y-90062048D01*
X110318572Y-90214429D01*
X110280477Y-90290619D01*
X110204286Y-90366810D01*
X110090000Y-90404905D01*
X109899524Y-90404905D01*
X110623334Y-89604905D02*
X111118572Y-89604905D01*
X110851905Y-89909667D01*
X110966191Y-89909667D01*
X111042381Y-89947762D01*
X111080477Y-89985857D01*
X111118572Y-90062048D01*
X111118572Y-90252524D01*
X111080477Y-90328714D01*
X111042381Y-90366810D01*
X110966191Y-90404905D01*
X110737619Y-90404905D01*
X110661429Y-90366810D01*
X110623334Y-90328714D01*
X110280524Y-121011905D02*
X110280524Y-120211905D01*
X110471000Y-120211905D01*
X110585286Y-120250000D01*
X110661477Y-120326190D01*
X110699572Y-120402381D01*
X110737667Y-120554762D01*
X110737667Y-120669048D01*
X110699572Y-120821429D01*
X110661477Y-120897619D01*
X110585286Y-120973810D01*
X110471000Y-121011905D01*
X110280524Y-121011905D01*
X111423381Y-120478571D02*
X111423381Y-121011905D01*
X111232905Y-120173810D02*
X111042429Y-120745238D01*
X111537667Y-120745238D01*
X108820048Y-110724905D02*
X108820048Y-109924905D01*
X109658143Y-110648714D02*
X109620048Y-110686810D01*
X109505762Y-110724905D01*
X109429572Y-110724905D01*
X109315286Y-110686810D01*
X109239095Y-110610619D01*
X109201000Y-110534429D01*
X109162905Y-110382048D01*
X109162905Y-110267762D01*
X109201000Y-110115381D01*
X109239095Y-110039190D01*
X109315286Y-109963000D01*
X109429572Y-109924905D01*
X109505762Y-109924905D01*
X109620048Y-109963000D01*
X109658143Y-110001095D01*
X109962905Y-110001095D02*
X110001000Y-109963000D01*
X110077191Y-109924905D01*
X110267667Y-109924905D01*
X110343857Y-109963000D01*
X110381953Y-110001095D01*
X110420048Y-110077286D01*
X110420048Y-110153476D01*
X110381953Y-110267762D01*
X109924810Y-110724905D01*
X110420048Y-110724905D01*
X105860905Y-99580666D02*
X106432333Y-99580666D01*
X106546619Y-99618762D01*
X106622810Y-99694952D01*
X106660905Y-99809238D01*
X106660905Y-99885428D01*
X106660905Y-98780666D02*
X106660905Y-99237809D01*
X106660905Y-99009238D02*
X105860905Y-99009238D01*
X105975190Y-99085428D01*
X106051381Y-99161619D01*
X106089476Y-99237809D01*
X134607334Y-124783905D02*
X134607334Y-125355333D01*
X134569238Y-125469619D01*
X134493048Y-125545810D01*
X134378762Y-125583905D01*
X134302572Y-125583905D01*
X134950191Y-124860095D02*
X134988286Y-124822000D01*
X135064477Y-124783905D01*
X135254953Y-124783905D01*
X135331143Y-124822000D01*
X135369239Y-124860095D01*
X135407334Y-124936286D01*
X135407334Y-125012476D01*
X135369239Y-125126762D01*
X134912096Y-125583905D01*
X135407334Y-125583905D01*
X135947477Y-117608333D02*
X136328429Y-117608333D01*
X135871286Y-117836905D02*
X136137953Y-117036905D01*
X136404620Y-117836905D01*
X136557000Y-117036905D02*
X136823667Y-117836905D01*
X137090334Y-117036905D01*
X137814143Y-117836905D02*
X137547476Y-117455952D01*
X137357000Y-117836905D02*
X137357000Y-117036905D01*
X137661762Y-117036905D01*
X137737953Y-117075000D01*
X137776048Y-117113095D01*
X137814143Y-117189286D01*
X137814143Y-117303571D01*
X137776048Y-117379762D01*
X137737953Y-117417857D01*
X137661762Y-117455952D01*
X137357000Y-117455952D01*
X138766524Y-117836905D02*
X138766524Y-117036905D01*
X139604619Y-117760714D02*
X139566524Y-117798810D01*
X139452238Y-117836905D01*
X139376048Y-117836905D01*
X139261762Y-117798810D01*
X139185571Y-117722619D01*
X139147476Y-117646429D01*
X139109381Y-117494048D01*
X139109381Y-117379762D01*
X139147476Y-117227381D01*
X139185571Y-117151190D01*
X139261762Y-117075000D01*
X139376048Y-117036905D01*
X139452238Y-117036905D01*
X139566524Y-117075000D01*
X139604619Y-117113095D01*
X139909381Y-117798810D02*
X140023667Y-117836905D01*
X140214143Y-117836905D01*
X140290333Y-117798810D01*
X140328429Y-117760714D01*
X140366524Y-117684524D01*
X140366524Y-117608333D01*
X140328429Y-117532143D01*
X140290333Y-117494048D01*
X140214143Y-117455952D01*
X140061762Y-117417857D01*
X139985571Y-117379762D01*
X139947476Y-117341667D01*
X139909381Y-117265476D01*
X139909381Y-117189286D01*
X139947476Y-117113095D01*
X139985571Y-117075000D01*
X140061762Y-117036905D01*
X140252238Y-117036905D01*
X140366524Y-117075000D01*
X140709381Y-117836905D02*
X140709381Y-117036905D01*
X141014143Y-117036905D01*
X141090334Y-117075000D01*
X141128429Y-117113095D01*
X141166524Y-117189286D01*
X141166524Y-117303571D01*
X141128429Y-117379762D01*
X141090334Y-117417857D01*
X141014143Y-117455952D01*
X140709381Y-117455952D01*
X101714334Y-112591905D02*
X101714334Y-113163333D01*
X101676238Y-113277619D01*
X101600048Y-113353810D01*
X101485762Y-113391905D01*
X101409572Y-113391905D01*
X102019096Y-112591905D02*
X102514334Y-112591905D01*
X102247667Y-112896667D01*
X102361953Y-112896667D01*
X102438143Y-112934762D01*
X102476239Y-112972857D01*
X102514334Y-113049048D01*
X102514334Y-113239524D01*
X102476239Y-113315714D01*
X102438143Y-113353810D01*
X102361953Y-113391905D01*
X102133381Y-113391905D01*
X102057191Y-113353810D01*
X102019096Y-113315714D01*
X102152715Y-116693905D02*
X101771762Y-116693905D01*
X101771762Y-115893905D01*
X102419381Y-116693905D02*
X102419381Y-115893905D01*
X102800333Y-116693905D02*
X102800333Y-115893905D01*
X103105095Y-115893905D01*
X103181286Y-115932000D01*
X103219381Y-115970095D01*
X103257476Y-116046286D01*
X103257476Y-116160571D01*
X103219381Y-116236762D01*
X103181286Y-116274857D01*
X103105095Y-116312952D01*
X102800333Y-116312952D01*
X103752714Y-115893905D02*
X103905095Y-115893905D01*
X103981286Y-115932000D01*
X104057476Y-116008190D01*
X104095571Y-116160571D01*
X104095571Y-116427238D01*
X104057476Y-116579619D01*
X103981286Y-116655810D01*
X103905095Y-116693905D01*
X103752714Y-116693905D01*
X103676524Y-116655810D01*
X103600333Y-116579619D01*
X103562238Y-116427238D01*
X103562238Y-116160571D01*
X103600333Y-116008190D01*
X103676524Y-115932000D01*
X103752714Y-115893905D01*
X104247952Y-116770095D02*
X104857476Y-116770095D01*
X105314619Y-116274857D02*
X105428905Y-116312952D01*
X105467000Y-116351048D01*
X105505095Y-116427238D01*
X105505095Y-116541524D01*
X105467000Y-116617714D01*
X105428905Y-116655810D01*
X105352714Y-116693905D01*
X105047952Y-116693905D01*
X105047952Y-115893905D01*
X105314619Y-115893905D01*
X105390809Y-115932000D01*
X105428905Y-115970095D01*
X105467000Y-116046286D01*
X105467000Y-116122476D01*
X105428905Y-116198667D01*
X105390809Y-116236762D01*
X105314619Y-116274857D01*
X105047952Y-116274857D01*
X105809857Y-116465333D02*
X106190809Y-116465333D01*
X105733666Y-116693905D02*
X106000333Y-115893905D01*
X106267000Y-116693905D01*
X106419380Y-115893905D02*
X106876523Y-115893905D01*
X106647952Y-116693905D02*
X106647952Y-115893905D01*
X106286334Y-122370905D02*
X106286334Y-122942333D01*
X106248238Y-123056619D01*
X106172048Y-123132810D01*
X106057762Y-123170905D01*
X105981572Y-123170905D01*
X107010143Y-122637571D02*
X107010143Y-123170905D01*
X106819667Y-122332810D02*
X106629191Y-122904238D01*
X107124429Y-122904238D01*
X102552715Y-124402810D02*
X102667001Y-124440905D01*
X102857477Y-124440905D01*
X102933667Y-124402810D01*
X102971763Y-124364714D01*
X103009858Y-124288524D01*
X103009858Y-124212333D01*
X102971763Y-124136143D01*
X102933667Y-124098048D01*
X102857477Y-124059952D01*
X102705096Y-124021857D01*
X102628905Y-123983762D01*
X102590810Y-123945667D01*
X102552715Y-123869476D01*
X102552715Y-123793286D01*
X102590810Y-123717095D01*
X102628905Y-123679000D01*
X102705096Y-123640905D01*
X102895572Y-123640905D01*
X103009858Y-123679000D01*
X103505096Y-123640905D02*
X103657477Y-123640905D01*
X103733668Y-123679000D01*
X103809858Y-123755190D01*
X103847953Y-123907571D01*
X103847953Y-124174238D01*
X103809858Y-124326619D01*
X103733668Y-124402810D01*
X103657477Y-124440905D01*
X103505096Y-124440905D01*
X103428906Y-124402810D01*
X103352715Y-124326619D01*
X103314620Y-124174238D01*
X103314620Y-123907571D01*
X103352715Y-123755190D01*
X103428906Y-123679000D01*
X103505096Y-123640905D01*
X104571763Y-124440905D02*
X104190810Y-124440905D01*
X104190810Y-123640905D01*
X104800334Y-124212333D02*
X105181286Y-124212333D01*
X104724143Y-124440905D02*
X104990810Y-123640905D01*
X105257477Y-124440905D01*
X105981286Y-124440905D02*
X105714619Y-124059952D01*
X105524143Y-124440905D02*
X105524143Y-123640905D01*
X105828905Y-123640905D01*
X105905096Y-123679000D01*
X105943191Y-123717095D01*
X105981286Y-123793286D01*
X105981286Y-123907571D01*
X105943191Y-123983762D01*
X105905096Y-124021857D01*
X105828905Y-124059952D01*
X105524143Y-124059952D01*
X144513334Y-78511905D02*
X144513334Y-79083333D01*
X144475238Y-79197619D01*
X144399048Y-79273810D01*
X144284762Y-79311905D01*
X144208572Y-79311905D01*
X145275239Y-78511905D02*
X144894286Y-78511905D01*
X144856191Y-78892857D01*
X144894286Y-78854762D01*
X144970477Y-78816667D01*
X145160953Y-78816667D01*
X145237143Y-78854762D01*
X145275239Y-78892857D01*
X145313334Y-78969048D01*
X145313334Y-79159524D01*
X145275239Y-79235714D01*
X145237143Y-79273810D01*
X145160953Y-79311905D01*
X144970477Y-79311905D01*
X144894286Y-79273810D01*
X144856191Y-79235714D01*
X142309857Y-94570190D02*
X142309857Y-94836857D01*
X142728905Y-94836857D02*
X141928905Y-94836857D01*
X141928905Y-94455904D01*
X141928905Y-94227333D02*
X142728905Y-94036857D01*
X142157476Y-93884476D01*
X142728905Y-93732095D01*
X141928905Y-93541619D01*
X142805095Y-93427333D02*
X142805095Y-92817809D01*
X141928905Y-92627333D02*
X142576524Y-92627333D01*
X142652714Y-92589238D01*
X142690810Y-92551142D01*
X142728905Y-92474952D01*
X142728905Y-92322571D01*
X142690810Y-92246380D01*
X142652714Y-92208285D01*
X142576524Y-92170190D01*
X141928905Y-92170190D01*
X142728905Y-91789238D02*
X141928905Y-91789238D01*
X141928905Y-91484476D01*
X141967000Y-91408285D01*
X142005095Y-91370190D01*
X142081286Y-91332095D01*
X142195571Y-91332095D01*
X142271762Y-91370190D01*
X142309857Y-91408285D01*
X142347952Y-91484476D01*
X142347952Y-91789238D01*
X142728905Y-90989238D02*
X141928905Y-90989238D01*
X141928905Y-90798762D01*
X141967000Y-90684476D01*
X142043190Y-90608285D01*
X142119381Y-90570190D01*
X142271762Y-90532095D01*
X142386048Y-90532095D01*
X142538429Y-90570190D01*
X142614619Y-90608285D01*
X142690810Y-90684476D01*
X142728905Y-90798762D01*
X142728905Y-90989238D01*
X142500333Y-90227333D02*
X142500333Y-89846381D01*
X142728905Y-90303524D02*
X141928905Y-90036857D01*
X142728905Y-89770190D01*
X141928905Y-89617810D02*
X141928905Y-89160667D01*
X142728905Y-89389238D02*
X141928905Y-89389238D01*
X142309857Y-88894000D02*
X142309857Y-88627333D01*
X142728905Y-88513047D02*
X142728905Y-88894000D01*
X141928905Y-88894000D01*
X141928905Y-88513047D01*
X114352381Y-126811905D02*
X114352381Y-127383333D01*
X114314285Y-127497619D01*
X114238095Y-127573810D01*
X114123809Y-127611905D01*
X114047619Y-127611905D01*
X115152381Y-127611905D02*
X114695238Y-127611905D01*
X114923809Y-127611905D02*
X114923809Y-126811905D01*
X114847619Y-126926190D01*
X114771428Y-127002381D01*
X114695238Y-127040476D01*
X115647619Y-126811905D02*
X115723810Y-126811905D01*
X115800000Y-126850000D01*
X115838095Y-126888095D01*
X115876191Y-126964286D01*
X115914286Y-127116667D01*
X115914286Y-127307143D01*
X115876191Y-127459524D01*
X115838095Y-127535714D01*
X115800000Y-127573810D01*
X115723810Y-127611905D01*
X115647619Y-127611905D01*
X115571429Y-127573810D01*
X115533333Y-127535714D01*
X115495238Y-127459524D01*
X115457143Y-127307143D01*
X115457143Y-127116667D01*
X115495238Y-126964286D01*
X115533333Y-126888095D01*
X115571429Y-126850000D01*
X115647619Y-126811905D01*
X111112381Y-114071905D02*
X111112381Y-114643333D01*
X111074285Y-114757619D01*
X110998095Y-114833810D01*
X110883809Y-114871905D01*
X110807619Y-114871905D01*
X111912381Y-114871905D02*
X111455238Y-114871905D01*
X111683809Y-114871905D02*
X111683809Y-114071905D01*
X111607619Y-114186190D01*
X111531428Y-114262381D01*
X111455238Y-114300476D01*
X112674286Y-114871905D02*
X112217143Y-114871905D01*
X112445714Y-114871905D02*
X112445714Y-114071905D01*
X112369524Y-114186190D01*
X112293333Y-114262381D01*
X112217143Y-114300476D01*
X111703237Y-116528905D02*
X112160380Y-116528905D01*
X111931809Y-117328905D02*
X111931809Y-116528905D01*
X112427047Y-116909857D02*
X112693714Y-116909857D01*
X112808000Y-117328905D02*
X112427047Y-117328905D01*
X112427047Y-116528905D01*
X112808000Y-116528905D01*
X113112762Y-117290810D02*
X113227048Y-117328905D01*
X113417524Y-117328905D01*
X113493714Y-117290810D01*
X113531810Y-117252714D01*
X113569905Y-117176524D01*
X113569905Y-117100333D01*
X113531810Y-117024143D01*
X113493714Y-116986048D01*
X113417524Y-116947952D01*
X113265143Y-116909857D01*
X113188952Y-116871762D01*
X113150857Y-116833667D01*
X113112762Y-116757476D01*
X113112762Y-116681286D01*
X113150857Y-116605095D01*
X113188952Y-116567000D01*
X113265143Y-116528905D01*
X113455619Y-116528905D01*
X113569905Y-116567000D01*
X113798476Y-116528905D02*
X114255619Y-116528905D01*
X114027048Y-117328905D02*
X114027048Y-116528905D01*
X115017524Y-116528905D02*
X115284191Y-117328905D01*
X115550858Y-116528905D01*
X115817524Y-117328905D02*
X115817524Y-116528905D01*
X115817524Y-116833667D02*
X115893715Y-116795571D01*
X116046096Y-116795571D01*
X116122286Y-116833667D01*
X116160381Y-116871762D01*
X116198477Y-116947952D01*
X116198477Y-117176524D01*
X116160381Y-117252714D01*
X116122286Y-117290810D01*
X116046096Y-117328905D01*
X115893715Y-117328905D01*
X115817524Y-117290810D01*
X116884191Y-117328905D02*
X116884191Y-116909857D01*
X116846096Y-116833667D01*
X116769906Y-116795571D01*
X116617525Y-116795571D01*
X116541334Y-116833667D01*
X116884191Y-117290810D02*
X116808001Y-117328905D01*
X116617525Y-117328905D01*
X116541334Y-117290810D01*
X116503239Y-117214619D01*
X116503239Y-117138429D01*
X116541334Y-117062238D01*
X116617525Y-117024143D01*
X116808001Y-117024143D01*
X116884191Y-116986048D01*
X117150858Y-116795571D02*
X117455620Y-116795571D01*
X117265144Y-116528905D02*
X117265144Y-117214619D01*
X117303239Y-117290810D01*
X117379430Y-117328905D01*
X117455620Y-117328905D01*
X117608001Y-116795571D02*
X117912763Y-116795571D01*
X117722287Y-116528905D02*
X117722287Y-117214619D01*
X117760382Y-117290810D01*
X117836573Y-117328905D01*
X117912763Y-117328905D01*
X108445381Y-85413905D02*
X108445381Y-85985333D01*
X108407285Y-86099619D01*
X108331095Y-86175810D01*
X108216809Y-86213905D01*
X108140619Y-86213905D01*
X109245381Y-86213905D02*
X108788238Y-86213905D01*
X109016809Y-86213905D02*
X109016809Y-85413905D01*
X108940619Y-85528190D01*
X108864428Y-85604381D01*
X108788238Y-85642476D01*
X109550143Y-85490095D02*
X109588238Y-85452000D01*
X109664429Y-85413905D01*
X109854905Y-85413905D01*
X109931095Y-85452000D01*
X109969191Y-85490095D01*
X110007286Y-85566286D01*
X110007286Y-85642476D01*
X109969191Y-85756762D01*
X109512048Y-86213905D01*
X110007286Y-86213905D01*
X109328285Y-83381905D02*
X109785428Y-83381905D01*
X109556857Y-84181905D02*
X109556857Y-83381905D01*
X110356857Y-84143810D02*
X110280667Y-84181905D01*
X110128286Y-84181905D01*
X110052095Y-84143810D01*
X110014000Y-84067619D01*
X110014000Y-83762857D01*
X110052095Y-83686667D01*
X110128286Y-83648571D01*
X110280667Y-83648571D01*
X110356857Y-83686667D01*
X110394952Y-83762857D01*
X110394952Y-83839048D01*
X110014000Y-83915238D01*
X110699714Y-84143810D02*
X110775904Y-84181905D01*
X110928285Y-84181905D01*
X111004476Y-84143810D01*
X111042571Y-84067619D01*
X111042571Y-84029524D01*
X111004476Y-83953333D01*
X110928285Y-83915238D01*
X110814000Y-83915238D01*
X110737809Y-83877143D01*
X110699714Y-83800952D01*
X110699714Y-83762857D01*
X110737809Y-83686667D01*
X110814000Y-83648571D01*
X110928285Y-83648571D01*
X111004476Y-83686667D01*
X111271142Y-83648571D02*
X111575904Y-83648571D01*
X111385428Y-83381905D02*
X111385428Y-84067619D01*
X111423523Y-84143810D01*
X111499714Y-84181905D01*
X111575904Y-84181905D01*
X112375905Y-83381905D02*
X112871143Y-83381905D01*
X112604476Y-83686667D01*
X112718762Y-83686667D01*
X112794952Y-83724762D01*
X112833048Y-83762857D01*
X112871143Y-83839048D01*
X112871143Y-84029524D01*
X112833048Y-84105714D01*
X112794952Y-84143810D01*
X112718762Y-84181905D01*
X112490190Y-84181905D01*
X112414000Y-84143810D01*
X112375905Y-84105714D01*
X113214000Y-84105714D02*
X113252095Y-84143810D01*
X113214000Y-84181905D01*
X113175905Y-84143810D01*
X113214000Y-84105714D01*
X113214000Y-84181905D01*
X113518762Y-83381905D02*
X114014000Y-83381905D01*
X113747333Y-83686667D01*
X113861619Y-83686667D01*
X113937809Y-83724762D01*
X113975905Y-83762857D01*
X114014000Y-83839048D01*
X114014000Y-84029524D01*
X113975905Y-84105714D01*
X113937809Y-84143810D01*
X113861619Y-84181905D01*
X113633047Y-84181905D01*
X113556857Y-84143810D01*
X113518762Y-84105714D01*
X114280667Y-83648571D02*
X114471143Y-84181905D01*
X114661619Y-83648571D01*
X111112381Y-121691905D02*
X111112381Y-122263333D01*
X111074285Y-122377619D01*
X110998095Y-122453810D01*
X110883809Y-122491905D01*
X110807619Y-122491905D01*
X111912381Y-122491905D02*
X111455238Y-122491905D01*
X111683809Y-122491905D02*
X111683809Y-121691905D01*
X111607619Y-121806190D01*
X111531428Y-121882381D01*
X111455238Y-121920476D01*
X112179048Y-121691905D02*
X112674286Y-121691905D01*
X112407619Y-121996667D01*
X112521905Y-121996667D01*
X112598095Y-122034762D01*
X112636191Y-122072857D01*
X112674286Y-122149048D01*
X112674286Y-122339524D01*
X112636191Y-122415714D01*
X112598095Y-122453810D01*
X112521905Y-122491905D01*
X112293333Y-122491905D01*
X112217143Y-122453810D01*
X112179048Y-122415714D01*
X111874618Y-124021905D02*
X112331761Y-124021905D01*
X112103190Y-124821905D02*
X112103190Y-124021905D01*
X112903190Y-124783810D02*
X112827000Y-124821905D01*
X112674619Y-124821905D01*
X112598428Y-124783810D01*
X112560333Y-124707619D01*
X112560333Y-124402857D01*
X112598428Y-124326667D01*
X112674619Y-124288571D01*
X112827000Y-124288571D01*
X112903190Y-124326667D01*
X112941285Y-124402857D01*
X112941285Y-124479048D01*
X112560333Y-124555238D01*
X113246047Y-124783810D02*
X113322237Y-124821905D01*
X113474618Y-124821905D01*
X113550809Y-124783810D01*
X113588904Y-124707619D01*
X113588904Y-124669524D01*
X113550809Y-124593333D01*
X113474618Y-124555238D01*
X113360333Y-124555238D01*
X113284142Y-124517143D01*
X113246047Y-124440952D01*
X113246047Y-124402857D01*
X113284142Y-124326667D01*
X113360333Y-124288571D01*
X113474618Y-124288571D01*
X113550809Y-124326667D01*
X113817475Y-124288571D02*
X114122237Y-124288571D01*
X113931761Y-124021905D02*
X113931761Y-124707619D01*
X113969856Y-124783810D01*
X114046047Y-124821905D01*
X114122237Y-124821905D01*
X115417476Y-124060000D02*
X115341285Y-124021905D01*
X115227000Y-124021905D01*
X115112714Y-124060000D01*
X115036523Y-124136190D01*
X114998428Y-124212381D01*
X114960333Y-124364762D01*
X114960333Y-124479048D01*
X114998428Y-124631429D01*
X115036523Y-124707619D01*
X115112714Y-124783810D01*
X115227000Y-124821905D01*
X115303190Y-124821905D01*
X115417476Y-124783810D01*
X115455571Y-124745714D01*
X115455571Y-124479048D01*
X115303190Y-124479048D01*
X115798428Y-124288571D02*
X115798428Y-124821905D01*
X115798428Y-124364762D02*
X115836523Y-124326667D01*
X115912714Y-124288571D01*
X116027000Y-124288571D01*
X116103190Y-124326667D01*
X116141285Y-124402857D01*
X116141285Y-124821905D01*
X116865095Y-124821905D02*
X116865095Y-124021905D01*
X116865095Y-124783810D02*
X116788905Y-124821905D01*
X116636524Y-124821905D01*
X116560333Y-124783810D01*
X116522238Y-124745714D01*
X116484143Y-124669524D01*
X116484143Y-124440952D01*
X116522238Y-124364762D01*
X116560333Y-124326667D01*
X116636524Y-124288571D01*
X116788905Y-124288571D01*
X116865095Y-124326667D01*
X144132381Y-96716905D02*
X144132381Y-97288333D01*
X144094285Y-97402619D01*
X144018095Y-97478810D01*
X143903809Y-97516905D01*
X143827619Y-97516905D01*
X144932381Y-97516905D02*
X144475238Y-97516905D01*
X144703809Y-97516905D02*
X144703809Y-96716905D01*
X144627619Y-96831190D01*
X144551428Y-96907381D01*
X144475238Y-96945476D01*
X145618095Y-96983571D02*
X145618095Y-97516905D01*
X145427619Y-96678810D02*
X145237143Y-97250238D01*
X145732381Y-97250238D01*
X144132381Y-116611905D02*
X144132381Y-117183333D01*
X144094285Y-117297619D01*
X144018095Y-117373810D01*
X143903809Y-117411905D01*
X143827619Y-117411905D01*
X144932381Y-117411905D02*
X144475238Y-117411905D01*
X144703809Y-117411905D02*
X144703809Y-116611905D01*
X144627619Y-116726190D01*
X144551428Y-116802381D01*
X144475238Y-116840476D01*
X145656191Y-116611905D02*
X145275238Y-116611905D01*
X145237143Y-116992857D01*
X145275238Y-116954762D01*
X145351429Y-116916667D01*
X145541905Y-116916667D01*
X145618095Y-116954762D01*
X145656191Y-116992857D01*
X145694286Y-117069048D01*
X145694286Y-117259524D01*
X145656191Y-117335714D01*
X145618095Y-117373810D01*
X145541905Y-117411905D01*
X145351429Y-117411905D01*
X145275238Y-117373810D01*
X145237143Y-117335714D01*
X144132381Y-106876905D02*
X144132381Y-107448333D01*
X144094285Y-107562619D01*
X144018095Y-107638810D01*
X143903809Y-107676905D01*
X143827619Y-107676905D01*
X144932381Y-107676905D02*
X144475238Y-107676905D01*
X144703809Y-107676905D02*
X144703809Y-106876905D01*
X144627619Y-106991190D01*
X144551428Y-107067381D01*
X144475238Y-107105476D01*
X145618095Y-106876905D02*
X145465714Y-106876905D01*
X145389524Y-106915000D01*
X145351429Y-106953095D01*
X145275238Y-107067381D01*
X145237143Y-107219762D01*
X145237143Y-107524524D01*
X145275238Y-107600714D01*
X145313333Y-107638810D01*
X145389524Y-107676905D01*
X145541905Y-107676905D01*
X145618095Y-107638810D01*
X145656191Y-107600714D01*
X145694286Y-107524524D01*
X145694286Y-107334048D01*
X145656191Y-107257857D01*
X145618095Y-107219762D01*
X145541905Y-107181667D01*
X145389524Y-107181667D01*
X145313333Y-107219762D01*
X145275238Y-107257857D01*
X145237143Y-107334048D01*
X138671381Y-109416905D02*
X138671381Y-109988333D01*
X138633285Y-110102619D01*
X138557095Y-110178810D01*
X138442809Y-110216905D01*
X138366619Y-110216905D01*
X139471381Y-110216905D02*
X139014238Y-110216905D01*
X139242809Y-110216905D02*
X139242809Y-109416905D01*
X139166619Y-109531190D01*
X139090428Y-109607381D01*
X139014238Y-109645476D01*
X139738048Y-109416905D02*
X140271381Y-109416905D01*
X139928524Y-110216905D01*
X139052381Y-101796905D02*
X139052381Y-102368333D01*
X139014285Y-102482619D01*
X138938095Y-102558810D01*
X138823809Y-102596905D01*
X138747619Y-102596905D01*
X139852381Y-102596905D02*
X139395238Y-102596905D01*
X139623809Y-102596905D02*
X139623809Y-101796905D01*
X139547619Y-101911190D01*
X139471428Y-101987381D01*
X139395238Y-102025476D01*
X140309524Y-102139762D02*
X140233333Y-102101667D01*
X140195238Y-102063571D01*
X140157143Y-101987381D01*
X140157143Y-101949286D01*
X140195238Y-101873095D01*
X140233333Y-101835000D01*
X140309524Y-101796905D01*
X140461905Y-101796905D01*
X140538095Y-101835000D01*
X140576191Y-101873095D01*
X140614286Y-101949286D01*
X140614286Y-101987381D01*
X140576191Y-102063571D01*
X140538095Y-102101667D01*
X140461905Y-102139762D01*
X140309524Y-102139762D01*
X140233333Y-102177857D01*
X140195238Y-102215952D01*
X140157143Y-102292143D01*
X140157143Y-102444524D01*
X140195238Y-102520714D01*
X140233333Y-102558810D01*
X140309524Y-102596905D01*
X140461905Y-102596905D01*
X140538095Y-102558810D01*
X140576191Y-102520714D01*
X140614286Y-102444524D01*
X140614286Y-102292143D01*
X140576191Y-102215952D01*
X140538095Y-102177857D01*
X140461905Y-102139762D01*
X112388667Y-78593905D02*
X112122000Y-78212952D01*
X111931524Y-78593905D02*
X111931524Y-77793905D01*
X112236286Y-77793905D01*
X112312477Y-77832000D01*
X112350572Y-77870095D01*
X112388667Y-77946286D01*
X112388667Y-78060571D01*
X112350572Y-78136762D01*
X112312477Y-78174857D01*
X112236286Y-78212952D01*
X111931524Y-78212952D01*
X112655334Y-77793905D02*
X113150572Y-77793905D01*
X112883905Y-78098667D01*
X112998191Y-78098667D01*
X113074381Y-78136762D01*
X113112477Y-78174857D01*
X113150572Y-78251048D01*
X113150572Y-78441524D01*
X113112477Y-78517714D01*
X113074381Y-78555810D01*
X112998191Y-78593905D01*
X112769619Y-78593905D01*
X112693429Y-78555810D01*
X112655334Y-78517714D01*
X110356667Y-78593905D02*
X110090000Y-78212952D01*
X109899524Y-78593905D02*
X109899524Y-77793905D01*
X110204286Y-77793905D01*
X110280477Y-77832000D01*
X110318572Y-77870095D01*
X110356667Y-77946286D01*
X110356667Y-78060571D01*
X110318572Y-78136762D01*
X110280477Y-78174857D01*
X110204286Y-78212952D01*
X109899524Y-78212952D01*
X111042381Y-78060571D02*
X111042381Y-78593905D01*
X110851905Y-77755810D02*
X110661429Y-78327238D01*
X111156667Y-78327238D01*
X110991667Y-100818905D02*
X110725000Y-100437952D01*
X110534524Y-100818905D02*
X110534524Y-100018905D01*
X110839286Y-100018905D01*
X110915477Y-100057000D01*
X110953572Y-100095095D01*
X110991667Y-100171286D01*
X110991667Y-100285571D01*
X110953572Y-100361762D01*
X110915477Y-100399857D01*
X110839286Y-100437952D01*
X110534524Y-100437952D01*
X111715477Y-100018905D02*
X111334524Y-100018905D01*
X111296429Y-100399857D01*
X111334524Y-100361762D01*
X111410715Y-100323667D01*
X111601191Y-100323667D01*
X111677381Y-100361762D01*
X111715477Y-100399857D01*
X111753572Y-100476048D01*
X111753572Y-100666524D01*
X111715477Y-100742714D01*
X111677381Y-100780810D01*
X111601191Y-100818905D01*
X111410715Y-100818905D01*
X111334524Y-100780810D01*
X111296429Y-100742714D01*
X110864667Y-99548905D02*
X110598000Y-99167952D01*
X110407524Y-99548905D02*
X110407524Y-98748905D01*
X110712286Y-98748905D01*
X110788477Y-98787000D01*
X110826572Y-98825095D01*
X110864667Y-98901286D01*
X110864667Y-99015571D01*
X110826572Y-99091762D01*
X110788477Y-99129857D01*
X110712286Y-99167952D01*
X110407524Y-99167952D01*
X111550381Y-98748905D02*
X111398000Y-98748905D01*
X111321810Y-98787000D01*
X111283715Y-98825095D01*
X111207524Y-98939381D01*
X111169429Y-99091762D01*
X111169429Y-99396524D01*
X111207524Y-99472714D01*
X111245619Y-99510810D01*
X111321810Y-99548905D01*
X111474191Y-99548905D01*
X111550381Y-99510810D01*
X111588477Y-99472714D01*
X111626572Y-99396524D01*
X111626572Y-99206048D01*
X111588477Y-99129857D01*
X111550381Y-99091762D01*
X111474191Y-99053667D01*
X111321810Y-99053667D01*
X111245619Y-99091762D01*
X111207524Y-99129857D01*
X111169429Y-99206048D01*
X132708667Y-122408905D02*
X132442000Y-122027952D01*
X132251524Y-122408905D02*
X132251524Y-121608905D01*
X132556286Y-121608905D01*
X132632477Y-121647000D01*
X132670572Y-121685095D01*
X132708667Y-121761286D01*
X132708667Y-121875571D01*
X132670572Y-121951762D01*
X132632477Y-121989857D01*
X132556286Y-122027952D01*
X132251524Y-122027952D01*
X132975334Y-121608905D02*
X133508667Y-121608905D01*
X133165810Y-122408905D01*
X131819667Y-97897905D02*
X131553000Y-97516952D01*
X131362524Y-97897905D02*
X131362524Y-97097905D01*
X131667286Y-97097905D01*
X131743477Y-97136000D01*
X131781572Y-97174095D01*
X131819667Y-97250286D01*
X131819667Y-97364571D01*
X131781572Y-97440762D01*
X131743477Y-97478857D01*
X131667286Y-97516952D01*
X131362524Y-97516952D01*
X132276810Y-97440762D02*
X132200619Y-97402667D01*
X132162524Y-97364571D01*
X132124429Y-97288381D01*
X132124429Y-97250286D01*
X132162524Y-97174095D01*
X132200619Y-97136000D01*
X132276810Y-97097905D01*
X132429191Y-97097905D01*
X132505381Y-97136000D01*
X132543477Y-97174095D01*
X132581572Y-97250286D01*
X132581572Y-97288381D01*
X132543477Y-97364571D01*
X132505381Y-97402667D01*
X132429191Y-97440762D01*
X132276810Y-97440762D01*
X132200619Y-97478857D01*
X132162524Y-97516952D01*
X132124429Y-97593143D01*
X132124429Y-97745524D01*
X132162524Y-97821714D01*
X132200619Y-97859810D01*
X132276810Y-97897905D01*
X132429191Y-97897905D01*
X132505381Y-97859810D01*
X132543477Y-97821714D01*
X132581572Y-97745524D01*
X132581572Y-97593143D01*
X132543477Y-97516952D01*
X132505381Y-97478857D01*
X132429191Y-97440762D01*
X131819667Y-100691905D02*
X131553000Y-100310952D01*
X131362524Y-100691905D02*
X131362524Y-99891905D01*
X131667286Y-99891905D01*
X131743477Y-99930000D01*
X131781572Y-99968095D01*
X131819667Y-100044286D01*
X131819667Y-100158571D01*
X131781572Y-100234762D01*
X131743477Y-100272857D01*
X131667286Y-100310952D01*
X131362524Y-100310952D01*
X132200619Y-100691905D02*
X132353000Y-100691905D01*
X132429191Y-100653810D01*
X132467286Y-100615714D01*
X132543477Y-100501429D01*
X132581572Y-100349048D01*
X132581572Y-100044286D01*
X132543477Y-99968095D01*
X132505381Y-99930000D01*
X132429191Y-99891905D01*
X132276810Y-99891905D01*
X132200619Y-99930000D01*
X132162524Y-99968095D01*
X132124429Y-100044286D01*
X132124429Y-100234762D01*
X132162524Y-100310952D01*
X132200619Y-100349048D01*
X132276810Y-100387143D01*
X132429191Y-100387143D01*
X132505381Y-100349048D01*
X132543477Y-100310952D01*
X132581572Y-100234762D01*
X124072714Y-79482905D02*
X123806047Y-79101952D01*
X123615571Y-79482905D02*
X123615571Y-78682905D01*
X123920333Y-78682905D01*
X123996524Y-78721000D01*
X124034619Y-78759095D01*
X124072714Y-78835286D01*
X124072714Y-78949571D01*
X124034619Y-79025762D01*
X123996524Y-79063857D01*
X123920333Y-79101952D01*
X123615571Y-79101952D01*
X124834619Y-79482905D02*
X124377476Y-79482905D01*
X124606047Y-79482905D02*
X124606047Y-78682905D01*
X124529857Y-78797190D01*
X124453666Y-78873381D01*
X124377476Y-78911476D01*
X125329857Y-78682905D02*
X125406048Y-78682905D01*
X125482238Y-78721000D01*
X125520333Y-78759095D01*
X125558429Y-78835286D01*
X125596524Y-78987667D01*
X125596524Y-79178143D01*
X125558429Y-79330524D01*
X125520333Y-79406714D01*
X125482238Y-79444810D01*
X125406048Y-79482905D01*
X125329857Y-79482905D01*
X125253667Y-79444810D01*
X125215571Y-79406714D01*
X125177476Y-79330524D01*
X125139381Y-79178143D01*
X125139381Y-78987667D01*
X125177476Y-78835286D01*
X125215571Y-78759095D01*
X125253667Y-78721000D01*
X125329857Y-78682905D01*
X108705714Y-113391905D02*
X108439047Y-113010952D01*
X108248571Y-113391905D02*
X108248571Y-112591905D01*
X108553333Y-112591905D01*
X108629524Y-112630000D01*
X108667619Y-112668095D01*
X108705714Y-112744286D01*
X108705714Y-112858571D01*
X108667619Y-112934762D01*
X108629524Y-112972857D01*
X108553333Y-113010952D01*
X108248571Y-113010952D01*
X109467619Y-113391905D02*
X109010476Y-113391905D01*
X109239047Y-113391905D02*
X109239047Y-112591905D01*
X109162857Y-112706190D01*
X109086666Y-112782381D01*
X109010476Y-112820476D01*
X110229524Y-113391905D02*
X109772381Y-113391905D01*
X110000952Y-113391905D02*
X110000952Y-112591905D01*
X109924762Y-112706190D01*
X109848571Y-112782381D01*
X109772381Y-112820476D01*
X124072714Y-81768905D02*
X123806047Y-81387952D01*
X123615571Y-81768905D02*
X123615571Y-80968905D01*
X123920333Y-80968905D01*
X123996524Y-81007000D01*
X124034619Y-81045095D01*
X124072714Y-81121286D01*
X124072714Y-81235571D01*
X124034619Y-81311762D01*
X123996524Y-81349857D01*
X123920333Y-81387952D01*
X123615571Y-81387952D01*
X124834619Y-81768905D02*
X124377476Y-81768905D01*
X124606047Y-81768905D02*
X124606047Y-80968905D01*
X124529857Y-81083190D01*
X124453666Y-81159381D01*
X124377476Y-81197476D01*
X125139381Y-81045095D02*
X125177476Y-81007000D01*
X125253667Y-80968905D01*
X125444143Y-80968905D01*
X125520333Y-81007000D01*
X125558429Y-81045095D01*
X125596524Y-81121286D01*
X125596524Y-81197476D01*
X125558429Y-81311762D01*
X125101286Y-81768905D01*
X125596524Y-81768905D01*
X106673714Y-118979905D02*
X106407047Y-118598952D01*
X106216571Y-118979905D02*
X106216571Y-118179905D01*
X106521333Y-118179905D01*
X106597524Y-118218000D01*
X106635619Y-118256095D01*
X106673714Y-118332286D01*
X106673714Y-118446571D01*
X106635619Y-118522762D01*
X106597524Y-118560857D01*
X106521333Y-118598952D01*
X106216571Y-118598952D01*
X107435619Y-118979905D02*
X106978476Y-118979905D01*
X107207047Y-118979905D02*
X107207047Y-118179905D01*
X107130857Y-118294190D01*
X107054666Y-118370381D01*
X106978476Y-118408476D01*
X107702286Y-118179905D02*
X108197524Y-118179905D01*
X107930857Y-118484667D01*
X108045143Y-118484667D01*
X108121333Y-118522762D01*
X108159429Y-118560857D01*
X108197524Y-118637048D01*
X108197524Y-118827524D01*
X108159429Y-118903714D01*
X108121333Y-118941810D01*
X108045143Y-118979905D01*
X107816571Y-118979905D01*
X107740381Y-118941810D01*
X107702286Y-118903714D01*
X109721714Y-105009905D02*
X109455047Y-104628952D01*
X109264571Y-105009905D02*
X109264571Y-104209905D01*
X109569333Y-104209905D01*
X109645524Y-104248000D01*
X109683619Y-104286095D01*
X109721714Y-104362286D01*
X109721714Y-104476571D01*
X109683619Y-104552762D01*
X109645524Y-104590857D01*
X109569333Y-104628952D01*
X109264571Y-104628952D01*
X110483619Y-105009905D02*
X110026476Y-105009905D01*
X110255047Y-105009905D02*
X110255047Y-104209905D01*
X110178857Y-104324190D01*
X110102666Y-104400381D01*
X110026476Y-104438476D01*
X111207429Y-104209905D02*
X110826476Y-104209905D01*
X110788381Y-104590857D01*
X110826476Y-104552762D01*
X110902667Y-104514667D01*
X111093143Y-104514667D01*
X111169333Y-104552762D01*
X111207429Y-104590857D01*
X111245524Y-104667048D01*
X111245524Y-104857524D01*
X111207429Y-104933714D01*
X111169333Y-104971810D01*
X111093143Y-105009905D01*
X110902667Y-105009905D01*
X110826476Y-104971810D01*
X110788381Y-104933714D01*
X127882714Y-103739905D02*
X127616047Y-103358952D01*
X127425571Y-103739905D02*
X127425571Y-102939905D01*
X127730333Y-102939905D01*
X127806524Y-102978000D01*
X127844619Y-103016095D01*
X127882714Y-103092286D01*
X127882714Y-103206571D01*
X127844619Y-103282762D01*
X127806524Y-103320857D01*
X127730333Y-103358952D01*
X127425571Y-103358952D01*
X128187476Y-103016095D02*
X128225571Y-102978000D01*
X128301762Y-102939905D01*
X128492238Y-102939905D01*
X128568428Y-102978000D01*
X128606524Y-103016095D01*
X128644619Y-103092286D01*
X128644619Y-103168476D01*
X128606524Y-103282762D01*
X128149381Y-103739905D01*
X128644619Y-103739905D01*
X128949381Y-103016095D02*
X128987476Y-102978000D01*
X129063667Y-102939905D01*
X129254143Y-102939905D01*
X129330333Y-102978000D01*
X129368429Y-103016095D01*
X129406524Y-103092286D01*
X129406524Y-103168476D01*
X129368429Y-103282762D01*
X128911286Y-103739905D01*
X129406524Y-103739905D01*
X133343714Y-103866905D02*
X133077047Y-103485952D01*
X132886571Y-103866905D02*
X132886571Y-103066905D01*
X133191333Y-103066905D01*
X133267524Y-103105000D01*
X133305619Y-103143095D01*
X133343714Y-103219286D01*
X133343714Y-103333571D01*
X133305619Y-103409762D01*
X133267524Y-103447857D01*
X133191333Y-103485952D01*
X132886571Y-103485952D01*
X133648476Y-103143095D02*
X133686571Y-103105000D01*
X133762762Y-103066905D01*
X133953238Y-103066905D01*
X134029428Y-103105000D01*
X134067524Y-103143095D01*
X134105619Y-103219286D01*
X134105619Y-103295476D01*
X134067524Y-103409762D01*
X133610381Y-103866905D01*
X134105619Y-103866905D01*
X134372286Y-103066905D02*
X134867524Y-103066905D01*
X134600857Y-103371667D01*
X134715143Y-103371667D01*
X134791333Y-103409762D01*
X134829429Y-103447857D01*
X134867524Y-103524048D01*
X134867524Y-103714524D01*
X134829429Y-103790714D01*
X134791333Y-103828810D01*
X134715143Y-103866905D01*
X134486571Y-103866905D01*
X134410381Y-103828810D01*
X134372286Y-103790714D01*
X107130810Y-87934667D02*
X107168905Y-87820381D01*
X107168905Y-87629905D01*
X107130810Y-87553715D01*
X107092714Y-87515619D01*
X107016524Y-87477524D01*
X106940333Y-87477524D01*
X106864143Y-87515619D01*
X106826048Y-87553715D01*
X106787952Y-87629905D01*
X106749857Y-87782286D01*
X106711762Y-87858477D01*
X106673667Y-87896572D01*
X106597476Y-87934667D01*
X106521286Y-87934667D01*
X106445095Y-87896572D01*
X106407000Y-87858477D01*
X106368905Y-87782286D01*
X106368905Y-87591810D01*
X106407000Y-87477524D01*
X106368905Y-87210857D02*
X107168905Y-87020381D01*
X106597476Y-86868000D01*
X107168905Y-86715619D01*
X106368905Y-86525143D01*
X107168905Y-85801333D02*
X107168905Y-86258476D01*
X107168905Y-86029905D02*
X106368905Y-86029905D01*
X106483190Y-86106095D01*
X106559381Y-86182286D01*
X106597476Y-86258476D01*
X122758333Y-135183810D02*
X122872619Y-135221905D01*
X123063095Y-135221905D01*
X123139285Y-135183810D01*
X123177381Y-135145714D01*
X123215476Y-135069524D01*
X123215476Y-134993333D01*
X123177381Y-134917143D01*
X123139285Y-134879048D01*
X123063095Y-134840952D01*
X122910714Y-134802857D01*
X122834523Y-134764762D01*
X122796428Y-134726667D01*
X122758333Y-134650476D01*
X122758333Y-134574286D01*
X122796428Y-134498095D01*
X122834523Y-134460000D01*
X122910714Y-134421905D01*
X123101190Y-134421905D01*
X123215476Y-134460000D01*
X123482143Y-134421905D02*
X123672619Y-135221905D01*
X123825000Y-134650476D01*
X123977381Y-135221905D01*
X124167857Y-134421905D01*
X124434524Y-134498095D02*
X124472619Y-134460000D01*
X124548810Y-134421905D01*
X124739286Y-134421905D01*
X124815476Y-134460000D01*
X124853572Y-134498095D01*
X124891667Y-134574286D01*
X124891667Y-134650476D01*
X124853572Y-134764762D01*
X124396429Y-135221905D01*
X124891667Y-135221905D01*
X110642476Y-92779905D02*
X110642476Y-93427524D01*
X110680571Y-93503714D01*
X110718667Y-93541810D01*
X110794857Y-93579905D01*
X110947238Y-93579905D01*
X111023429Y-93541810D01*
X111061524Y-93503714D01*
X111099619Y-93427524D01*
X111099619Y-92779905D01*
X111899619Y-93579905D02*
X111442476Y-93579905D01*
X111671047Y-93579905D02*
X111671047Y-92779905D01*
X111594857Y-92894190D01*
X111518666Y-92970381D01*
X111442476Y-93008476D01*
X113563476Y-75380905D02*
X113563476Y-76028524D01*
X113601571Y-76104714D01*
X113639667Y-76142810D01*
X113715857Y-76180905D01*
X113868238Y-76180905D01*
X113944429Y-76142810D01*
X113982524Y-76104714D01*
X114020619Y-76028524D01*
X114020619Y-75380905D01*
X114363476Y-75457095D02*
X114401571Y-75419000D01*
X114477762Y-75380905D01*
X114668238Y-75380905D01*
X114744428Y-75419000D01*
X114782524Y-75457095D01*
X114820619Y-75533286D01*
X114820619Y-75609476D01*
X114782524Y-75723762D01*
X114325381Y-76180905D01*
X114820619Y-76180905D01*
X116865476Y-107257905D02*
X116865476Y-107905524D01*
X116903571Y-107981714D01*
X116941667Y-108019810D01*
X117017857Y-108057905D01*
X117170238Y-108057905D01*
X117246429Y-108019810D01*
X117284524Y-107981714D01*
X117322619Y-107905524D01*
X117322619Y-107257905D01*
X117627381Y-107257905D02*
X118122619Y-107257905D01*
X117855952Y-107562667D01*
X117970238Y-107562667D01*
X118046428Y-107600762D01*
X118084524Y-107638857D01*
X118122619Y-107715048D01*
X118122619Y-107905524D01*
X118084524Y-107981714D01*
X118046428Y-108019810D01*
X117970238Y-108057905D01*
X117741666Y-108057905D01*
X117665476Y-108019810D01*
X117627381Y-107981714D01*
X126224952Y-125094952D02*
X126605905Y-125094952D01*
X125805905Y-125361619D02*
X126224952Y-125094952D01*
X125805905Y-124828285D01*
X126605905Y-124142571D02*
X126605905Y-124599714D01*
X126605905Y-124371143D02*
X125805905Y-124371143D01*
X125920190Y-124447333D01*
X125996381Y-124523524D01*
X126034476Y-124599714D01*
X123933048Y-97008905D02*
X123933048Y-96208905D01*
X124771143Y-96932714D02*
X124733048Y-96970810D01*
X124618762Y-97008905D01*
X124542572Y-97008905D01*
X124428286Y-96970810D01*
X124352095Y-96894619D01*
X124314000Y-96818429D01*
X124275905Y-96666048D01*
X124275905Y-96551762D01*
X124314000Y-96399381D01*
X124352095Y-96323190D01*
X124428286Y-96247000D01*
X124542572Y-96208905D01*
X124618762Y-96208905D01*
X124733048Y-96247000D01*
X124771143Y-96285095D01*
X125533048Y-97008905D02*
X125075905Y-97008905D01*
X125304476Y-97008905D02*
X125304476Y-96208905D01*
X125228286Y-96323190D01*
X125152095Y-96399381D01*
X125075905Y-96437476D01*
X135883714Y-102214905D02*
X135617047Y-101833952D01*
X135426571Y-102214905D02*
X135426571Y-101414905D01*
X135731333Y-101414905D01*
X135807524Y-101453000D01*
X135845619Y-101491095D01*
X135883714Y-101567286D01*
X135883714Y-101681571D01*
X135845619Y-101757762D01*
X135807524Y-101795857D01*
X135731333Y-101833952D01*
X135426571Y-101833952D01*
X136188476Y-101491095D02*
X136226571Y-101453000D01*
X136302762Y-101414905D01*
X136493238Y-101414905D01*
X136569428Y-101453000D01*
X136607524Y-101491095D01*
X136645619Y-101567286D01*
X136645619Y-101643476D01*
X136607524Y-101757762D01*
X136150381Y-102214905D01*
X136645619Y-102214905D01*
X137331333Y-101681571D02*
X137331333Y-102214905D01*
X137140857Y-101376810D02*
X136950381Y-101948238D01*
X137445619Y-101948238D01*
M02*
