M48
;DRILL file {KiCad 4.0.7-e2-6376~58~ubuntu16.04.1} date Wed Mar 28 23:24:06 2018
;FORMAT={-:-/ absolute / inch / decimal}
FMAT,2
INCH,TZ
T1C0.016
T2C0.033
T3C0.035
T4C0.039
T5C0.051
T6C0.059
T7C0.063
T8C0.126
%
G90
G05
M72
T1
X4.1Y-3.71
X4.18Y-4.2
X4.18Y-4.59
X4.19Y-3.76
X4.19Y-3.85
X4.2Y-4.35
X4.23Y-3.53
X4.26Y-2.875
X4.26Y-3.1
X4.26Y-4.34
X4.285Y-3.02
X4.29Y-4.66
X4.295Y-2.955
X4.32Y-4.16
X4.325Y-2.875
X4.375Y-4.16
X4.39Y-3.26
X4.39Y-4.39
X4.39Y-4.71
X4.4Y-4.33
X4.401Y-2.761
X4.405Y-4.165
X4.41Y-3.65
X4.42Y-3.35
X4.43Y-3.95
X4.43Y-4.39
X4.48Y-3.
X4.48Y-4.31
X4.495Y-3.085
X4.505Y-4.33
X4.53Y-3.98
X4.53Y-4.67
X4.54Y-3.54
X4.55Y-4.12
X4.56Y-4.7
X4.57Y-3.
X4.58Y-3.17
X4.59Y-4.67
X4.61Y-3.57
X4.625Y-4.685
X4.64Y-3.66
X4.64Y-4.87
X4.66Y-3.2
X4.67Y-3.51
X4.67Y-3.81
X4.68Y-3.75
X4.69Y-4.75
X4.695Y-4.225
X4.71Y-4.08
X4.715Y-4.82
X4.75Y-5.
X4.78Y-4.12
X4.785Y-5.0614
X4.81Y-3.5
X4.82Y-4.76
X4.83Y-4.17
X4.84Y-3.63
X4.85Y-2.97
X4.85Y-3.83
X4.86Y-4.07
X4.87Y-4.17
X4.87Y-5.2386
X4.875Y-2.92
X4.88Y-3.31
X4.88Y-3.64
X4.88Y-3.77
X4.885Y-3.08
X4.905Y-4.165
X4.91Y-3.15
X4.96Y-5.0614
X4.97Y-3.8
X4.985Y-2.885
X4.99Y-2.5
X4.99Y-2.57
X4.99Y-2.635
X4.99Y-2.7
X4.99Y-2.765
X4.99Y-2.82
X4.99Y-4.76
X5.005Y-3.03
X5.01Y-3.29
X5.01Y-3.96
X5.025Y-2.73
X5.03Y-4.05
X5.03Y-4.76
X5.04Y-3.89
X5.04Y-4.12
X5.05Y-4.5
X5.06Y-4.73
X5.075Y-2.73
X5.075Y-3.025
X5.1Y-4.2
X5.11Y-3.73
X5.12Y-4.03
X5.13Y-4.655
X5.13Y-4.87
X5.17Y-3.03
X5.17Y-4.955
X5.18Y-4.26
X5.2Y-3.97
X5.2Y-4.84
X5.21Y-4.54
X5.22Y-4.45
X5.245Y-2.88
X5.25Y-2.82
X5.25Y-4.48
X5.255Y-3.035
X5.255Y-4.54
X5.26Y-3.2
X5.26Y-4.2
X5.27Y-4.51
X5.29Y-4.17
X5.295Y-2.77
X5.3Y-4.71
X5.35Y-2.89
X5.35Y-3.01
X5.36Y-4.35
X5.39Y-4.26
X5.39Y-4.355
X5.425Y-4.355
X5.52Y-3.1
X5.52Y-3.15
X5.52Y-3.3
X5.53Y-3.25
X5.54Y-3.45
X5.54Y-3.7
X5.54Y-3.92
X5.565Y-4.135
X5.57Y-4.17
X5.59Y-4.75
T2
X4.1Y-3.8266
X4.1Y-4.0234
T3
X4.035Y-3.2675
X4.035Y-3.3463
X4.035Y-3.5037
X4.035Y-3.5825
X4.165Y-3.2675
X4.165Y-3.3463
X4.165Y-3.5037
X4.165Y-3.5825
T4
X4.1Y-4.4
X4.1Y-4.5
X4.1Y-4.7
X4.1Y-4.8
X4.3Y-3.3
X4.4Y-4.6
X4.4Y-4.9
X5.4Y-4.7
X5.4Y-4.8
X5.4Y-4.9
X5.5Y-4.1
X5.5Y-4.2
X5.5Y-4.4
X5.5Y-4.5
X5.5Y-4.7
X5.5Y-4.8
X5.5Y-4.9
X5.7Y-3.2
X5.7Y-3.3
X5.7Y-3.4
X5.7Y-3.5
X5.7Y-3.6
X5.7Y-3.7
X5.7Y-3.9
X5.7Y-4.
X5.7Y-4.1
X5.7Y-4.3
X5.7Y-4.4
X5.7Y-4.5
X5.7Y-4.7
X5.7Y-4.8
X5.7Y-4.9
T5
X3.9937Y-3.7872
X3.9937Y-4.0628
T6
X5.25Y-2.6
T7
X5.15Y-2.5
X5.15Y-2.7
X5.35Y-2.5
X5.35Y-2.7
T8
X4.1339Y-2.9921
X4.5276Y-5.1575
X5.2362Y-5.1575
X5.6299Y-2.9921
T0
M30
