G04 #@! TF.FileFunction,Soldermask,Top*
%FSLAX46Y46*%
G04 Gerber Fmt 4.6, Leading zero omitted, Abs format (unit mm)*
G04 Created by KiCad (PCBNEW 4.0.7-e2-6376~58~ubuntu16.04.1) date Wed Mar 28 23:24:04 2018*
%MOMM*%
%LPD*%
G01*
G04 APERTURE LIST*
%ADD10C,0.100000*%
%ADD11R,1.100000X1.700000*%
%ADD12C,3.000000*%
%ADD13R,2.000000X1.400000*%
%ADD14R,1.650000X1.400000*%
%ADD15R,1.400000X1.650000*%
%ADD16R,1.200000X1.300000*%
%ADD17R,1.100000X1.200000*%
%ADD18R,0.900000X1.200000*%
%ADD19R,1.050000X1.460000*%
%ADD20R,2.400000X0.800000*%
%ADD21C,1.850000*%
%ADD22C,2.400000*%
%ADD23R,2.100000X2.100000*%
%ADD24O,2.100000X2.100000*%
%ADD25C,5.900000*%
%ADD26R,1.700000X1.100000*%
%ADD27C,1.924000*%
%ADD28R,2.400000X1.300000*%
%ADD29R,1.950000X1.700000*%
%ADD30R,1.900000X1.100000*%
%ADD31R,1.900000X1.400000*%
%ADD32R,1.100000X1.900000*%
%ADD33R,1.900000X0.950000*%
%ADD34R,0.950000X1.900000*%
%ADD35R,1.800000X1.900000*%
%ADD36R,1.213000X0.705000*%
%ADD37R,0.705000X1.213000*%
G04 APERTURE END LIST*
D10*
D11*
X111826000Y-104521000D03*
X113726000Y-104521000D03*
D12*
X135890000Y-63500000D03*
X130810000Y-63500000D03*
X130810000Y-68580000D03*
X135890000Y-68580000D03*
X133350000Y-66040000D03*
D13*
X104140000Y-109196000D03*
X104140000Y-106196000D03*
D14*
X111252000Y-108950000D03*
X111252000Y-106950000D03*
X111760000Y-94758000D03*
X111760000Y-96758000D03*
X138938000Y-84090000D03*
X138938000Y-86090000D03*
X117094000Y-120666000D03*
X117094000Y-122666000D03*
X141732000Y-84090000D03*
X141732000Y-86090000D03*
X121666000Y-101362000D03*
X121666000Y-103362000D03*
X113792000Y-94758000D03*
X113792000Y-96758000D03*
D15*
X119618000Y-77470000D03*
X117618000Y-77470000D03*
X124730000Y-67183000D03*
X126730000Y-67183000D03*
D14*
X127000000Y-125714000D03*
X127000000Y-123714000D03*
X120650000Y-123714000D03*
X120650000Y-125714000D03*
D15*
X115300000Y-113284000D03*
X113300000Y-113284000D03*
X124730000Y-104394000D03*
X126730000Y-104394000D03*
X121396000Y-98806000D03*
X119396000Y-98806000D03*
X109458000Y-102870000D03*
X107458000Y-102870000D03*
D16*
X112080000Y-91170000D03*
X113980000Y-91170000D03*
X113030000Y-89170000D03*
D17*
X109220000Y-119650000D03*
D18*
X109220000Y-121650000D03*
D19*
X107254000Y-109050000D03*
X108204000Y-109050000D03*
X109154000Y-109050000D03*
X109154000Y-106850000D03*
X107254000Y-106850000D03*
D20*
X104465000Y-98395000D03*
X104465000Y-99045000D03*
X104465000Y-99695000D03*
X104465000Y-100345000D03*
X104465000Y-100995000D03*
D21*
X104140000Y-97195000D03*
X104140000Y-102195000D03*
D22*
X101440000Y-96195000D03*
X101440000Y-103195000D03*
D23*
X139700000Y-124460000D03*
D24*
X137160000Y-124460000D03*
X139700000Y-121920000D03*
X137160000Y-121920000D03*
X139700000Y-119380000D03*
X137160000Y-119380000D03*
D23*
X104140000Y-111760000D03*
D24*
X104140000Y-114300000D03*
D23*
X104140000Y-119380000D03*
D24*
X104140000Y-121920000D03*
D23*
X144780000Y-81280000D03*
D24*
X144780000Y-83820000D03*
X144780000Y-86360000D03*
X144780000Y-88900000D03*
X144780000Y-91440000D03*
X144780000Y-93980000D03*
D25*
X105000000Y-76000000D03*
X133000000Y-131000000D03*
X143000000Y-76000000D03*
X115000000Y-131000000D03*
D23*
X111760000Y-116840000D03*
X109220000Y-83820000D03*
X111760000Y-124460000D03*
X144780000Y-99060000D03*
D24*
X144780000Y-101600000D03*
X144780000Y-104140000D03*
D23*
X144780000Y-119380000D03*
D24*
X144780000Y-121920000D03*
X144780000Y-124460000D03*
D23*
X144780000Y-109220000D03*
D24*
X144780000Y-111760000D03*
X144780000Y-114300000D03*
D23*
X139700000Y-111760000D03*
D24*
X139700000Y-114300000D03*
D23*
X139700000Y-104140000D03*
D24*
X139700000Y-106680000D03*
D26*
X112522000Y-81214000D03*
X112522000Y-79314000D03*
X110490000Y-81214000D03*
X110490000Y-79314000D03*
D11*
X109662000Y-100330000D03*
X107762000Y-100330000D03*
X109662000Y-98298000D03*
X107762000Y-98298000D03*
D26*
X134620000Y-123378000D03*
X134620000Y-121478000D03*
D11*
X130490000Y-97536000D03*
X128590000Y-97536000D03*
X130490000Y-100330000D03*
X128590000Y-100330000D03*
X120970000Y-80010000D03*
X122870000Y-80010000D03*
D26*
X107188000Y-112080000D03*
X107188000Y-113980000D03*
D11*
X120970000Y-82296000D03*
X122870000Y-82296000D03*
D26*
X107188000Y-121600000D03*
X107188000Y-119700000D03*
D11*
X108646000Y-104648000D03*
X106746000Y-104648000D03*
X124780000Y-102489000D03*
X126680000Y-102489000D03*
D26*
X131572000Y-105598000D03*
X131572000Y-103698000D03*
D27*
X102490000Y-82995000D03*
X102490000Y-84995000D03*
X102490000Y-88995000D03*
X102490000Y-90995000D03*
X105790000Y-82995000D03*
X105790000Y-84995000D03*
X105790000Y-88995000D03*
X105790000Y-90995000D03*
D28*
X101140000Y-82995000D03*
X101140000Y-84995000D03*
X101140000Y-88995000D03*
X101140000Y-90995000D03*
D29*
X127805000Y-128560000D03*
X127805000Y-133060000D03*
X119845000Y-133060000D03*
X119845000Y-128560000D03*
D19*
X109662000Y-92372000D03*
X108712000Y-92372000D03*
X107762000Y-92372000D03*
X107762000Y-94572000D03*
X109662000Y-94572000D03*
D30*
X122510000Y-74130000D03*
X122510000Y-73130000D03*
X122510000Y-72130000D03*
X122510000Y-71130000D03*
X122510000Y-70130000D03*
X122510000Y-69130000D03*
X122510000Y-68130000D03*
X122510000Y-67130000D03*
X122510000Y-66130000D03*
X122510000Y-65130000D03*
X122510000Y-64130000D03*
X122510000Y-63130000D03*
D31*
X122510000Y-61980000D03*
X113710000Y-61980000D03*
D30*
X113710000Y-63130000D03*
X113710000Y-64130000D03*
X113710000Y-65130000D03*
X113710000Y-66130000D03*
X113710000Y-67130000D03*
X113710000Y-68130000D03*
X113710000Y-69130000D03*
X113710000Y-70130000D03*
X113710000Y-71130000D03*
X113710000Y-72130000D03*
X113710000Y-73130000D03*
X113710000Y-74130000D03*
D32*
X116110000Y-74530000D03*
X117110000Y-74530000D03*
X118110000Y-74530000D03*
X119110000Y-74530000D03*
X120110000Y-74530000D03*
D33*
X118760000Y-109030000D03*
X118760000Y-109830000D03*
X118760000Y-110630000D03*
X118760000Y-111430000D03*
X118760000Y-112230000D03*
X118760000Y-113030000D03*
X118760000Y-113830000D03*
X118760000Y-114630000D03*
X118760000Y-115430000D03*
X118760000Y-116230000D03*
X118760000Y-117030000D03*
D34*
X120460000Y-118730000D03*
X121260000Y-118730000D03*
X122060000Y-118730000D03*
X122860000Y-118730000D03*
X123660000Y-118730000D03*
X124460000Y-118730000D03*
X125260000Y-118730000D03*
X126060000Y-118730000D03*
X126860000Y-118730000D03*
X127660000Y-118730000D03*
X128460000Y-118730000D03*
D33*
X130160000Y-117030000D03*
X130160000Y-116230000D03*
X130160000Y-115430000D03*
X130160000Y-114630000D03*
X130160000Y-113830000D03*
X130160000Y-113030000D03*
X130160000Y-112230000D03*
X130160000Y-111430000D03*
X130160000Y-110630000D03*
X130160000Y-109830000D03*
X130160000Y-109030000D03*
D34*
X128460000Y-107330000D03*
X127660000Y-107330000D03*
X126860000Y-107330000D03*
X126060000Y-107330000D03*
X125260000Y-107330000D03*
X124460000Y-107330000D03*
X123660000Y-107330000D03*
X122860000Y-107330000D03*
X122060000Y-107330000D03*
X121260000Y-107330000D03*
X120460000Y-107330000D03*
D35*
X124394000Y-125914000D03*
X122494000Y-123514000D03*
X124394000Y-123514000D03*
X122494000Y-125914000D03*
D36*
X123439000Y-100314000D03*
X123439000Y-99814000D03*
X123439000Y-99314000D03*
X123439000Y-98814000D03*
X123439000Y-98314000D03*
D37*
X124214000Y-98039000D03*
X124714000Y-98039000D03*
X125214000Y-98039000D03*
D36*
X125989000Y-98314000D03*
X125989000Y-98814000D03*
X125989000Y-99314000D03*
X125989000Y-99814000D03*
X125989000Y-100314000D03*
D37*
X125214000Y-100589000D03*
X124714000Y-100589000D03*
X124214000Y-100589000D03*
D11*
X137348000Y-100203000D03*
X135448000Y-100203000D03*
M02*
