G04 #@! TF.FileFunction,Soldermask,Bot*
%FSLAX46Y46*%
G04 Gerber Fmt 4.6, Leading zero omitted, Abs format (unit mm)*
G04 Created by KiCad (PCBNEW 4.0.7-e2-6376~58~ubuntu16.04.1) date Wed Mar 28 23:24:04 2018*
%MOMM*%
%LPD*%
G01*
G04 APERTURE LIST*
%ADD10C,0.100000*%
%ADD11C,3.000000*%
%ADD12R,1.400000X1.650000*%
%ADD13R,1.650000X1.400000*%
%ADD14R,1.200000X1.300000*%
%ADD15R,1.300000X1.200000*%
%ADD16R,1.200000X1.100000*%
%ADD17R,1.200000X0.900000*%
%ADD18R,1.600000X1.600000*%
%ADD19R,3.600000X2.400000*%
%ADD20C,1.850000*%
%ADD21C,2.400000*%
%ADD22R,2.100000X2.100000*%
%ADD23O,2.100000X2.100000*%
%ADD24C,5.900000*%
%ADD25R,1.700000X1.100000*%
%ADD26R,1.100000X1.700000*%
%ADD27C,1.924000*%
%ADD28R,1.924000X1.416000*%
%ADD29R,1.416000X1.924000*%
%ADD30R,1.400000X2.000000*%
%ADD31R,1.950000X1.700000*%
G04 APERTURE END LIST*
D10*
D11*
X135890000Y-63500000D03*
X130810000Y-63500000D03*
X130810000Y-68580000D03*
X135890000Y-68580000D03*
X133350000Y-66040000D03*
D12*
X128254000Y-109728000D03*
X126254000Y-109728000D03*
D13*
X129540000Y-105394000D03*
X129540000Y-103394000D03*
X118618000Y-102600000D03*
X118618000Y-100600000D03*
D14*
X109916000Y-88376000D03*
X108016000Y-88376000D03*
X108966000Y-86376000D03*
D15*
X109712000Y-92776000D03*
X109712000Y-94676000D03*
X107712000Y-93726000D03*
D16*
X109458000Y-104394000D03*
D17*
X107458000Y-104394000D03*
D18*
X120904000Y-109517000D03*
X120904000Y-111717000D03*
X117348000Y-109517000D03*
X117348000Y-111717000D03*
X119126000Y-109517000D03*
X119126000Y-111717000D03*
D19*
X108458000Y-102172000D03*
X108458000Y-97472000D03*
D20*
X104140000Y-97195000D03*
X104140000Y-102195000D03*
D21*
X101440000Y-96195000D03*
X101440000Y-103195000D03*
D22*
X139700000Y-124460000D03*
D23*
X137160000Y-124460000D03*
X139700000Y-121920000D03*
X137160000Y-121920000D03*
X139700000Y-119380000D03*
X137160000Y-119380000D03*
D22*
X104140000Y-111760000D03*
D23*
X104140000Y-114300000D03*
D22*
X104140000Y-119380000D03*
D23*
X104140000Y-121920000D03*
D22*
X144780000Y-81280000D03*
D23*
X144780000Y-83820000D03*
X144780000Y-86360000D03*
X144780000Y-88900000D03*
X144780000Y-91440000D03*
X144780000Y-93980000D03*
D24*
X105000000Y-76000000D03*
X133000000Y-131000000D03*
X143000000Y-76000000D03*
X115000000Y-131000000D03*
D22*
X111760000Y-116840000D03*
X109220000Y-83820000D03*
X111760000Y-124460000D03*
X144780000Y-99060000D03*
D23*
X144780000Y-101600000D03*
X144780000Y-104140000D03*
D22*
X144780000Y-119380000D03*
D23*
X144780000Y-121920000D03*
X144780000Y-124460000D03*
D22*
X144780000Y-109220000D03*
D23*
X144780000Y-111760000D03*
X144780000Y-114300000D03*
D22*
X139700000Y-111760000D03*
D23*
X139700000Y-114300000D03*
D22*
X139700000Y-104140000D03*
D23*
X139700000Y-106680000D03*
D25*
X112268000Y-88580000D03*
X112268000Y-86680000D03*
D26*
X110678000Y-90678000D03*
X108778000Y-90678000D03*
X121097000Y-113792000D03*
X122997000Y-113792000D03*
X113096000Y-103251000D03*
X114996000Y-103251000D03*
D25*
X116586000Y-102550000D03*
X116586000Y-100650000D03*
X131318000Y-72832000D03*
X131318000Y-70932000D03*
X128270000Y-72832000D03*
X128270000Y-70932000D03*
X118745000Y-114620000D03*
X118745000Y-116520000D03*
D27*
X102490000Y-82995000D03*
X102490000Y-84995000D03*
X102490000Y-88995000D03*
X102490000Y-90995000D03*
X105790000Y-82995000D03*
X105790000Y-84995000D03*
X105790000Y-88995000D03*
X105790000Y-90995000D03*
D28*
X138430000Y-100330000D03*
X138430000Y-99060000D03*
X138430000Y-97790000D03*
X138430000Y-96520000D03*
X138430000Y-95250000D03*
X138430000Y-93980000D03*
X138430000Y-92710000D03*
X138430000Y-91440000D03*
X138430000Y-90170000D03*
X138430000Y-88900000D03*
X138430000Y-87630000D03*
X138430000Y-86360000D03*
X138430000Y-85090000D03*
X138430000Y-83820000D03*
X138430000Y-82550000D03*
X138430000Y-81280000D03*
X138430000Y-80010000D03*
X138430000Y-78740000D03*
X138430000Y-77470000D03*
X138430000Y-76200000D03*
X120650000Y-76200000D03*
D29*
X133350000Y-74930000D03*
X132080000Y-74930000D03*
X130810000Y-74930000D03*
X129540000Y-74930000D03*
X128270000Y-74930000D03*
X127000000Y-74930000D03*
X125730000Y-74930000D03*
D28*
X120650000Y-77470000D03*
X120650000Y-78740000D03*
X120650000Y-80010000D03*
X120650000Y-81280000D03*
X120650000Y-82550000D03*
X120650000Y-83820000D03*
X120650000Y-85090000D03*
X120650000Y-86360000D03*
X120650000Y-87630000D03*
X120650000Y-88900000D03*
X120650000Y-90170000D03*
X120650000Y-91440000D03*
X120650000Y-92710000D03*
X120650000Y-93980000D03*
X120650000Y-95250000D03*
X120650000Y-96520000D03*
X120650000Y-97790000D03*
X120650000Y-99060000D03*
X120650000Y-100330000D03*
D25*
X142240000Y-81600000D03*
X142240000Y-83500000D03*
D30*
X111430000Y-107990000D03*
X114630000Y-107990000D03*
X111430000Y-112990000D03*
X114630000Y-112990000D03*
D26*
X132268000Y-116713000D03*
X130368000Y-116713000D03*
D31*
X119845000Y-128560000D03*
X119845000Y-133060000D03*
X127805000Y-133060000D03*
X127805000Y-128560000D03*
X119972000Y-119035000D03*
X119972000Y-123535000D03*
X127932000Y-123535000D03*
X127932000Y-119035000D03*
M02*
